<mxfile host="app.diagrams.net" agent="Mozilla/5.0 (Macintosh; Intel Mac OS X 10_15_7) AppleWebKit/537.36 (KHTML, like Gecko) Chrome/131.0.0.0 Safari/537.36" version="25.0.3">
  <diagram id="Ht1M8jgEwFfnCIfOTk4-" name="Page-1">
    <mxGraphModel dx="616" dy="724" grid="1" gridSize="10" guides="1" tooltips="1" connect="1" arrows="1" fold="1" page="1" pageScale="1" pageWidth="1169" pageHeight="827" math="0" shadow="0">
      <root>
        <mxCell id="0" />
        <mxCell id="1" parent="0" />
        <mxCell id="UEzPUAAOIrF-is8g5C7q-74" value="フロントエンド" style="points=[[0,0],[0.25,0],[0.5,0],[0.75,0],[1,0],[1,0.25],[1,0.5],[1,0.75],[1,1],[0.75,1],[0.5,1],[0.25,1],[0,1],[0,0.75],[0,0.5],[0,0.25]];outlineConnect=0;gradientColor=none;html=1;whiteSpace=wrap;fontSize=12;fontStyle=0;shape=mxgraph.aws4.group;grIcon=mxgraph.aws4.group_aws_cloud_alt;strokeColor=#232F3E;fillColor=none;verticalAlign=top;align=left;spacingLeft=30;fontColor=#232F3E;dashed=0;labelBackgroundColor=#ffffff;container=1;pointerEvents=0;collapsible=0;recursiveResize=0;" parent="1" vertex="1">
          <mxGeometry x="220" y="210" width="300" height="300" as="geometry" />
        </mxCell>
        <mxCell id="MY-9ZuuyUCaM7rutcldb-9" value="" style="rounded=1;whiteSpace=wrap;html=1;dashed=1;dashPattern=8 8;" vertex="1" parent="UEzPUAAOIrF-is8g5C7q-74">
          <mxGeometry x="40" y="100" width="240" height="150" as="geometry" />
        </mxCell>
        <mxCell id="MY-9ZuuyUCaM7rutcldb-2" value="" style="shape=image;verticalLabelPosition=bottom;labelBackgroundColor=default;verticalAlign=top;aspect=fixed;imageAspect=0;image=data:image/png,iVBORw0KGgoAAAANSUhEUgAABQAAAALQCAMAAAD4oy1kAAADAFBMVEX///8hNUcA2P/5+fkA1/8gNEYdMUQG2f8WKz69NP8eM0UM2v/+//8aLkET2/8C2P/3/v//1y/7///8/P0bMEL/yiH/3DTx/f/7+/z+/v7/zCP/yB9C4v8uQVIa3P//xh3r/P//xBpN5P844f//2jFEVWSXZf7/0Cb/vRSuRv//0yrf+///uhH/1Sz/ziUg3f8kN0mQbf+Gef/+/v3Z+f+gWP+5Of44SloYLT+U7/8+T1+K7v//tw6yQf+jVf/S+P8l3v+Jdv+eW/9W5f+Uaf+lUv/l/P//whnK9/+OcP8zRlYpPU7t7vCDff8mOkvy8/Sd8P+nT/+1Pf4r3///wBdLXGrBx8zE9v/m6Oox4P9ndYG39P/e4eTw8fJgqv9SYnC+9f+C7P+k8f8SJzrj5ede5///41asSv+FkJpjpv+x9P9bsf9qnP+Wn6h4hI//qwRp6P9xlP9drf+pTP9ZaXZte4b/sAjKz9SdXv6aX/+stLpIyP+9w8hWt/9noP9lo///0Smao6ynr7Z86/+r8v9gb3xPvv+aYf+Lc/5v6f9k5/+Bgf9Tuv94iv926///tAy3vcP/4EeLc//p7O11kP+yucBZtP/R1dlCz//29/h8iJNyf4r09fb5+PvO0tZMwv//3jxsmf/3+PmCjpfY297U2NyMlqCTnKV8h/9+ipWPmaKepa6fqrOJlJ7/5m2Raf/Gy9C6Lv/b3uF1j/7/7ZT28/+UY//u5P9vl/707P/Tj//Gef/v1/97g///87jiyP/Yp/9z6f///Ov/+NbBZv/1niWtUfhj0/+mjcaZiP/0xzfnoEyypf/ysDPojkzf1/+xjv+uZN6Iyf/as2OO4P/l9v+Ai5bzuzLDWsaSiOLI7P+t3P/dtf/MaabXkHXVpm/GVv/Fg53Bq4rBQ/2BnuTBk5uqc9bffW7Iwf+6d7m6nZ9jwf+yt/9+ff+9S+HlvP/Z7v/Tdo19d//nuU7O2P/ATf+Snv+dfd/NxHKox/84zv/hyVfpxUzA3v12fP8zzv8JCnVWAAB49ElEQVR4Xuzde4wbVb4v+r4+JZVQWeXCCIqGuoWpQg3BgE+gEqnkJHZSiXF0xb1OjGRZ1uXalgzCsIUhV1GyR8Nwtq1J7MyYM2ju3Dl/5A6zpS2hMyOiCNJN0oGkIYS8H0AEgRAIgfAmvAMzw56rtVaVXa52ux0g6U7z/TDNI/0Is7f2d//WWr/1WwMDAAAAAAAAAAAAAAAAAAAAAAAAAAAAAAAAAAAAAAAAAAAAAAAAAAAAAAAAAAAAAAAAAAAAAAAAAAAAAAAAAAAAAAAAAAAAAAAAAAAAAAAAAAAAAAAAAAAAAAAAAAAAAAAAAAAAAAAAAAAAAAAAAAAAAAAAAAAAAAAAAAAAAAAAAAAAAAAAAAAAAAAAAAAAAAAAAAAAAAAAAAAAAAAAAAAAAAAAAAAAAAAAAAAAAAAAAAAAAAAAAAAAAAAAAAAAAAAAAAAAAAAAAAAAAAAAAAAAAAAAAAAAAAAAAAAAAAAAAAAAAAAAAAAAAAAAAAAAAAAAAAAAAAAAAAAAAAAAAAAAAAAAAAAAAAAAAAAAAAAAAAAAAAAAAAAAAAAAAAAAAAAAAAAAAAAAAAAAAAAAAAAAAAAAAAAAAAAAAAAAAAAAAAAAAAAAAAAAAAAAAAAAAAAAAAAAAAAAAAAAAAAAAAAAAAAAAAAAAAAAAAAAAAAAAAAAAAAAAAAAAAAAAAAAAAAAAAAAAAAAAAAAAAAAAAAAAAAAAAAAAAAAAAAAU24w6P0VAICZzh+U5ETYMGKxWDgheT8LADBzBUMJI5lLmSmzUEiVY7L38wAAM5QcTuZS0WbF0jRNUaxG08zFErLf+2UAADOOFEsVGlo6oooCzwuiKIpxrVA2kIAAMLMF5XCmWLX0tMoHfD4fx/kCAR/HR5SxIhbCADCjSYlkrarERd7XISCoeqUYw2EIAMxYUiJZLJR0UvxxXGcE8mJcKeQT6IoBmLlusXl//WfBL4fz0ZKuCp3R5+A4vZAPIQEBZqZbnn32ueeeeeaZJ5957mcZgXIyVcpG2qtfjuN5jvPxPPsVjlM1E6tggJmF1XzPPvssDb8nn3z88cefedb7RTOeXwrFTEvl2kvfAC9G4qoaibcykY9XagnvNwLABYzUfc+w6KPhRzz58wtA2cgVNJVUfKza8wWErFUZK0QLdSvr/LKg1/M4Cga48JGij5R9rrrvzsfvJOl35+N3/vwCUIrVmoroVH+k+EsrY6lazggny2aFHov4fFxA1E00wwBc8G559jmy30erPlb33Xnn43fafoYVYKJo6SrvBKCQVhrRcjKcCEmSHEoki5WsGKCfFK2UIaEhGuCCxDb7nMMOWvaRwCPZ50rAJ39me4B+KZyrRARS5BF8RGkUajG5feCbqJXiNB25QLaCk2CACxOp++wVr73dx8LP7Xe/u/PJ535WAeiXY6lG2j7o4Dgu0qBXf10xJyejGm2O4XyCkgrjJBjgAtIq+5y6rzPybL+zPXrnM89daF0wfv9AUJLlUCiRSIRkov+QCoaSqVLaOefgxbhVjHkGYPkT+Wbabg+MFzLYBQS4cLC6r33G26Xoc3n0sjuf8f6EaU+SpVAsk8/na6liLmnEksn+y7RQPmo59R9Z/jZrYcm7yJXIIpgtkdVSEa0wANMe6+1zyr7udZ87+B793aPUZY8/5/1R05yUiOVrqWihWa83rFKlWShEzVQuEzNCfaSglCxocYHWf5xPzFqFXNgbf6RMjJlsEewTlUJs0PtpAJhenLpvfNX3O/Kfjuizk4/53QUXgEY5WlGy2WxEFURVFQUxrWiaVhozy2Hvl3oNyoaZFWiTi8/H8Xolley+wJWMaoSUiRwfb+RwJRhguqI32pzeZnbO+zsSeuNqvlbytcPvsssue/TC6gIkNzhSFS0t8IIQ4DiOJ8cYvKhG1IiuNQqpXMYITdy2EkwkUxYr/2iXX7McC3m/xianFNFHvlBQiv2vrwHgvLrl2efaDS5t7uAjycfSr517jmseffyZZy+gMxDZKBe0iHd+QSDA8wIh6hUzP/GenZyJahG7/S8gKtWMPGGTn5yrpNlCORJFMzTANPXsM66yj/7RmXzdqr62a6559IJqgpFixboS4V1XeCn7nzmOE9JKqVDMec91mWCM5B+LPyGiFfITlX/ka5NRhX4pJzZqPb4OAKbQc0+y2u93neHXM/barrn40ScvoAJQCqdK6VYH80SEuBXNdVm2BhM1TbXPf8nXJHsNvfcbRUukv5OoFyauKQFgCt3y3OPjlrt9RR9xzTXXXPO7C6gJxh+uNewTXIoNr2qVf/avcWSifaNQzHhOhf2J8lg8QPf1OC5umZnedV0oU4/TtBTS9eSEK2UAmErPPO6NPm/MdXfNNST/LrvmzgunC9ov5+ppGmB0gIEgioIaj6tCgOd5+2C39Tk1qzVTmbDrfkcwlKnqgp2SAS2VnOSKmxSOZsleI8fHS7kEOmEApqNnHj+Lko8gZV/bhdQEI8eiiujUf2JasSr1sXq9XilpelwVRVFolYF0j08pRWvJ9l4gOQBR2YgDXtWjMffdt65CKU0lPy8gaLVuvYIA8KP5B4PBYHDwBy+xnrnzsj6Tj+nMv8vufPLZvoubwcFLLrnkkr6//CcXLpbsIwyePFoULeaTmVwuny+nqiVN0bNxUeADrUqQF9Na3cw562DJMC17A5CPKNXM5IkmlxsRFqh6yhi/owgAP57/SCzzmdH10LIvz/zuGm/GdbrmmssuI1/SmXzMjaQJxvsTJ+LftHnk4MGRTVOWgMkxnfW/8BGlYuZi4ZAcSoRCoYQRS+aK0WZJ09OuEfe8IEaURtTuiknUSk73jKoVyn0ca0iZQpZ9Qzaa/MH/+wGACfll47XUy2bxtcyRUCgky5J0tsVgzwCk4cc+vNl3zTXXXHzxjZdN2gQzOHjJ5evXb9pE0u/99z/e/v7BzZd7v+Y8KWss3QIkwQxPb14omUtFmw1NjzgXPegrHxGtWjNkyS/nq1n7l3m90O2MeJygkWKNMIH0WK6PrweAs5R47eUXbC+//PLrtdeSR/q50OryzKMTBKA37jpdTN14zaTXQC7fNHLw4Pvv79u375tDh3bv3r370McHN3m/6LyQzAhZ4HI+QY9mwt4WlqAcSoSTNXNMIw8d2XfdOLIQVipmPkY2AJ3dw0YyNG78QRf+cNliiRtp1M7ufykA0Ad/8uUX/vnPf/7tb3/829/++ccXrJdffrn42mvGkSOh0L/LktTPYvMZur4dxxt4nVj8XXzxjRM1wQzSqm/z5s0jB796/+N9h3bvXruBGh4ePvT+iPfLzwfJqLIzXHIqK3f/H02QTLQfs5S4GGh3xfARq2BGLTbilByAmH2mmZypsD1H1UrhLgjAT+6S4gt//Nvf/vjHP5IPyqkGXy++9tqR3o1q1LPPPHox3eFz1rpdXdz+cLKPubP7GbB/02ZS9n2875tvSNG3e/fCtWuXzl46e/bsDRtmLz100Pv150Mo16CPePCqVjC8n3RIcigcK0dL5F2j1omwkNY0Jc76p/mIVujjAITyh+v02IQTNdMInt3OBABMyv+yE3yOv/3in7/4xS9+wVbEr732mXHkyJEjsjxhMfjsk49e7LT0dXfxxST0nA+3Gy/+3ePPXdL+WYOX06pvZISWfaTuu23t0qVLZ2+YPXspM5tG4O5t7n+D8yWcYjczhHRlkqtpoWSxqkVUZyHs8wkR52yEE5Vqro8DECZRSJOykRP0guFHAAL81FLt2o/6xS/+RvKP+uiFj1544YUXX379+9deOzLBEuyWW568jJR23dGib2I3Xvz4k64KcFDePPIVWfDaZd+6dTffvHDt2ke+WLuW5CCrAGdvmD20cEoC0CgoIrnHIeo97/DS7UA5nCyOaXHB7pomndI0DDkuXu3rAITyJ0yNFZ2Rsd6/IwD8AP7aCx3xR/74Bfn40y/+RPz617/+00ckA19//bXPPvvssyNHQus7isFbWAXYlTfvxrn+4sefe3Zg0C77Dn61jZR93+zeve4LYunahQsXrl279pGlNP6c8m/DhilaAseqpAmG84mKGesjwhK5QklX7RNhZzXMi1Y50fe1Nn8iZdGTE16tTzppEADOlv+1l7Vx+UfZCfinP/3poz999Otff/TRRx+9+OKL44rBW55rB+DFdIfP+ZjMjRffeP3FTz53S3ATLfs+/uab3U/sfmz3unWk8Fv7xdovFn6xcOFakoA0AFn5N3vD7OHFh/ZNwSGIX8pUdXqMIejFSS6xEX4pkawVLF11j07gVSV6NqWcXLQiJD6FdD3jPXUGgB8tkXuhtQhm6Uf/9Ccn/379a1IF/uY3v/nNL3/zG5aBr5MUpNXg+ktIAF52Y0cA9unGG2+8+MYbn/yKhh9Z9D52G637vriZWUjKP1IBPsKqP3v5u2HD8IZ926agDSYo55t6gCNjTJVcP1nkl+RwPtXU2EADm6qYfW8AkiOVWiPObgNX8j3GrALADzMYah2DkOizC8B2+fdrEn80AEkG/vI3v/zlH/7whz989NGL373+/fefHZGefe7Ja248q9yj2cdcvOffvtn92G8fe+yxx9atW3cb084/Gn/29p9d/pE+mNnH1nv/W5wHwVB+LEsDMGJlvJ/syu/3y0Y+6tx/IzghW+l/C3BgQMo307RyFC0EIMA5MFh74YV/OuUfy79W+Ufjj9V/JP1+SdLvnj/cc88DD9zzB1IMfvf669//x+PejOupFX7EQ3//y7r//M9P1n3yyW2f2PHnzr9HHln7iF3/se2/2YsXDw1N0Q7gQDDfiNMAzNaT3s9NSEpkTCvuDJDxcbyqFHL9L4KlTIFNhRasPJbAAD896Ujxhb95qr/WAYidfyQCSfHHyr8/3HMPycA7HnjggTvuuOf/+dabcV6s6PNkH3H939/e9fTTT5Ndv2713yNrO/Jv9obFixdvGB6aojbogYEMneXC8Wf1SltQzphKKwB9AdIGmAz1+/1SJsoCkNewBwhwDvjl2Ms0AJ3jj3b5x9a/LP7o4pfmH42/ex6g8Xf33Xf827cTLoBJyHXJvZbr//7hO5+w/OuIP7b/t9ap/+zyj9R/i4eGF+8bmaKrwDk7APXqWUwmkMLlpt4OQDIlS2+YyT5Pgsk4BHKGEhC1WqKv7wCAszIov/xC+/CXpB9NQKf8YwcgtPoj+Ufij9R/JP9IBD7wr90qwEmC73rycf2ND32762hH/ecq/9aS/pdW/m2YTeNvw9DQ4rWnvf8Fzg+/XLYi9hK435sc7BV0RXUFIB2Gqkfz/U3fCWYKOjlF5lUtdRZlJwD0Lfjayy+0489Z/rIEdG//0fwjCfiAUwDeccfdd7gD8MbW6W4319Psu558UDde//ZRcvjRbflL88+9/UfWv4uHhofPbJ+aHcCBYKhcInuAPj7d6H8PcCBsWnF7hJbAszeOOE7VopO0UtuCMVNnF+iUotF/6gJA3wbl116g199+8SdaAHqPP2j8se0/Vv7ZBSDNvwf+9dsbSfBNuNHH0Nyj+dd240Nv0w3AcfFHaj87/5zTDxKAG4aGhocPTdEkmAG/nK+kaQDGS2cRgMkKe0OJC0TaowLpg0iDA5OvaYPhmkL2ADlOx0xogHPkyMue3b+O04/24Qcr/xiSf3fcffc7//rtRKFHdCRep4ce+sdfbvvPdetuowl488033+Y0v7Tiz3X6S85/h4aHZm+fovwbGPDnaQXI8WexBPaHigpLPc6nNa00z26EBARVrxcnexOEBaDOvkVBAAKcI/LrL9vpR/7UWv56t/9o/rXLP3IEcvc9//r3iZa8PePv+utv3PPSrk8+6dj9s5e/JADdp790+bt4aPHwmtmHpuQWMJMp2XuAzb5bUuRMldzk8PkCnFjIRUtxZ1Yq54tY5uSnwUGjqGAJDHBuBY+8/kK7+6Vb919n/Ufj7467iXe+/dbe3nMyr2fuPUQqP+r6h/7x9q6nP6H1H63+nPVvZ/3n7P4Rw6t3nx6ZshgIZugSmAukG/n+znAHgoap0RGC5BX0shzOR620UxAK8dLkV4qDsZRGJtAEBCWanLL/5gAznP8zEoDezT87/2j8jdv+o/n3qzve+de/t/KPhd9EAUhDrxWA115//Ut/ObqO9j/b8Ufzr9X77OTfbLL5t4Hl39Chkf6S5xzwSxn7KlzEyvUXgMFQrsGmoPIRLWoMDEgx8qw62wf0CdlSKjbJ9Y6gUaQBSKboIwABzpXQ6y+467/fuNa/rfRzul/s+o8k4K9+9c63JAB7sku+tmuJ669/6ehukn/u1e8jj3TEn13/DdECcHj14kPH1vcOjHMpmCw4d4Fr/S2BpZiZpfNMfWQIYIhsCSZNso6mu3q8ENEKk1xw88t5ja2ZdTOGAAQ4R6TXXv5oXP3XXv66dv/s8o/F36/ufufbv3sDz6tr/l17/UNvH6X5RxPQOfwgg5+9u380/4aHh1eP7js42abZuRQrKPY0mFSijzDyDybKFTrMivOlGzV6AzgYSprOKpjmYiHf+0dJSY3FZTaFPUCAc8UvvfYCiT42+sXV/tIu/9z1H93+IwFIKsDOtKOJ5/z1oYeuJYFH/2IHn+2ha/e8fdsnrr0/WvstPHOGJCCLP9b8bO//Da1ZvWj31ql7EZMMRI0qdPnKpwuxCcbDugVDmYJiPyKi2dt9/qAUzkc1+3Fhn09Umrmep7uJska/ltdTqAABzp3PXrbrP2f2S/v0ox1/dvNfK/4eHFcB0o0++mFXe62Pjvy79tqHvvzwti9I/n2x8OaFN9985syZo2d27frww3fPOPm3uL38HRoeXrNmaN9m77/0eWWk7BONSLOfNma64cd2AOMV1wAEOVPQVJ5eDmFrY3LHjSyE/ZI0MBCUZMkflMn7pHJIlmMpjbYRCno0Rr6554IZAH6o0Pcvd13+OvFHEtDZ/nMC8MEHH3zn2z030nJv3FLXE3geN+156S8Lv/jiZjIBcO3NZ3Z9+OHbL335yp49e77c5Vr9OuXf0JrVqxdvmYoxgC6JfIPmGSdW+nnVQy43dTIJi/Opmul+RDiRLyiiPSKaV5VmJhQclP0DfjkRlgYSRiwshZKZpBFO5pLJXJT2EQYEvUlmcAUnOzYGgB/kkiOvf9RR/U1096O9/H3wwQd/9ddv95CKryP+WMnX00037fnHh0dvW3fm6K5du3Z9+Pbbb7705Z4rrr/22uuveNd7+jE0PLRmePXq0fdHXO8nTYFQcow+0MHxVqqPAfUhky11OS5bzbt7nv2hfEGLC2wZzItKs5hJZjKZfK5WrJWLZtQspqKFQiFaaFardYtdJOHjpWg+mYwZYfJ8PRbDAD+51178k/fum3v1225+YfFHA/Ded7596HoSeK3Nvu7hdxP7uIl+MFe89CFZ8pLk27Pnyj1XXHrFFVfcdNO1e96lk19c7X9Da9asWb169aGt3n/h80xOFrJkE5Dj9SZdj/Zm2G/6cj6t3LnP5w/FUg16PsxuhSiVQqGiWSVL07OKoqcj8Ww2oqrxbFwVnc5pMatopbFosVbO5WN91J8AcHaOvPyi5/DXu/vXkX8Pkvx78K9/ZyUfPdeY0E033dQKvpZ/vPTS2y99+Y89rS+54oorrrjqy11277Nd/61h+bdq99RdgrNJ4ZSiBkgAphuZydaiwURNY2/C8epYK/8GpaAUShixjFlyApDjODGr62k1Eo+oAi+qQoDzCYKP4wJCoP20MC+qaiSrWKXKWDWaKueTRkiiQ6c9vy8A/DCXHHn912zsaR/5R+LvwXsfvPedv980cfC5C77xrrh0zxVXsMrPcdOlX757xsk/Z/uPBOCcxdsPTsUg/A7BMl3UcnzEKvfuXhkYkPNVOsye7PKl6NcGgwMDoXDYyNRSZrRBtwdt5NFMPuBo/XIn9kW8oKZ1RVGsMTNvyOSsZCrPxQFmEvn7j8bl3wTLX5p/D957771//fuE+ecNvE5XkKrQqftsl9506Zu7Wnd/2/G3evXq0W1T2gLDZMaypKgLiEpqsoc9QqZmP2ipV3IDA6TsS+bJDl+1XtIUJdvxWBznaL+f2RX5koAgiqIYySqlplnMkUJQCqIMBPgJfPbyR634Y83PrtF/dgC28+9e4q9/J9t7TuK5P7zIDl/7gwWe86dL2Z8vvWLPu+zwl939GG7l39ChKZqD7+Y3nOn28WjvTkB/MFZnl+CEtBXNh41MOZWKVixLiauqyMo9b7qdDfrMuhBXKtFaJhYOyYhAgB/Nv+m1F+259+7yz7v6tbf/iD//+a976AFHt8TrwFa4rmqPZZ+9/r300kvp39360q6hDa27b/bpx+pVc9YcmuIWGCZcs1hns9qo9ewElMJ2A7NPiGjNQoGWfXo6ElF5X4AWct5Io5wikJ41t//W/Un6N/Y/8WJa1yqFVM7dZAMAP5T8+vjRB3b+seEH7u0/FoD/uL57wedwFXwTIOlHXXHpl++eWjw8Lv9WzRk6vXmKHgLpkMjZJ7uiUujVCBNMOI8Z+Xgxaylper7hC7S3/boKBOhGH8/zoigKPC8Idq+M/cmOL2Y4n5i1qsVkaBDHIQA/1uBrL/7yl/f0rv/ay997/8wqwG7IFl+Xms/GFrxeV1z65imyA0g3/1rL31WLVq2aopcwveRklTXCCNl6psdEGDmWKqn27FNejKgk02g11y7oWpt+rvdCxLiu6LqiaJqmWZalaZqi2/P0fbygkvqRfo/znawoFNSsUirUkuiNAfixjrz+4j108J/n7scE9R8JwOu92UeKvomzj+z02R+drrzy0j3vzh4aatd/rPxbNWfV6PZpsANIV7amItJOwIjFphuM4w9KQTlWrOu0Z5plXSvhXFitJ4hiq8rjfKpeKVSrhWgqZZqpYjEVjUYrCv05AV7NKpqmpEWBFwTPFiJJwbgVzSWkIMpAgB9j/ZEXWfyxAtBd/rW7X5z9PxaA7QrQG3Ue3sTrdOWlV7zy5gmyAHaOf1n8rVq0YNW+qW+BYeSixp5447MTHINIoXA+VSi5u1w6t/HI3p2PC6iReDqraJamtb9UzI7VMrGYYYQNIxwmf4pFWQCS14RTqZQZjY6VND2uRiIiKwadnypElEa0HOvztU0A6M7//Ufjl793eJtfHmT599RTT/3bnmt7F3wEWd1O5spLSQ/g0HCr+8XJv1VzFm+b2jtwbcFcKc7GGKh113wD9jlJlkPhWL5YtfS48/xRB1r1CYIaj4hZjbQ0R82UaY4pznAYPl4pdy5kg6ZOTl04ITuWD4eNmBFOls2xkmVp5LegZ8E2XogolVS+e1kKAH367LuPOnr/XM0vnu2/p5566ql3aABOoPtOn+NK54O56tJL3zy1mAWgs/tH8m/OqsVbpvoSXEswFqWvtPk4UTM9m24hI5ZPRZslJU0aXdqxZy9SA6RMi6R1zWrUC2aqmMvQq71hI19ojccSlUKmo66UCuw6sZBtZkKSREbEJMKxZL5oViuWosdFcleE1YEBctwS7WdKAwBM6N9fe7H76Qcr/9rbf0899dT9T73z9p6upR890pi48LvySvpxJfuwvfJux91fln+L5qw6dHpqx2C5DCZyJXoqwQnpsVhruRmU5JCRK5pNS8nSBW3Hth852yVHGGlyka1KrvMmE4lwK+hC+YLzdDof0cykOwHDY+TuHQ1A9/shwXAyV0tFx0pkU7B9UizEtWo5jL5ogB/M79/0urf7pXP521r9OgHovsvmTbpOroJvnEtfefNEq/5j8bdo0aJFcxas2r556u+AOKRYlT7qwfGRUs4ZZx+UE8nUWEljwwvc2UfKM7LozWpWo5BK0R2+cCIkS1J7s05K5JpZ58g4YplG+3eTM3X2hIiQbnaUdpIsJ8JJErklGrlOEUim7OcSWAYD/HDfv3gPS78uzS+u8u+pp+73BqA38Dw6Cz4P0gNIArC9/KX5t2jV6LZJrt2eV6GURhtcAoJChtT7g5KciOVrUSsdF8nVD1fnMtmYE9U4OeoYi6aKybBBdujGl2fBcK0SYcHJ8fFS0Wi9OJLIVdK081rIFsYdufjlhJHMFQsNJS46j21ynDDplH0A6OXIVx+5dv9co1/Gxd/v33nnbTLNwJt0NrbOtT/GuYp9XOV8vHmKzn128o/E36I5c+ZMlxYYWzBTpfeBfb5sISMNyKFwhmWQ4Nn385Hnk9Jaox4t5jIxw1P2dZBC+apinwWT9+NiTgKGaw3aB8iJWmpcAJLwlUJGpsYikP2WHK9q0SRKQIAf7sh3ZAHsan6xR185xx92/t1///1P/Le390xY+LGCr2v4EVdddeVV7IP85epXji9e7Sn/Fs2Zs2DRoYPT4RJcm5Fil9w41TJj5FC2WlLSQkeTs41TrYJZyyXDIYlMguklkWvqpMGQtRgWDZZg/nDNosnGqZXy+ACkSAQWCyUlwtu/Px+3zO4dOgDQh8H1r7/4gDf+7PRz1X/333//7+//b29f2S3/vGHXiRV9bldeSXYAV7P8W+Wq/xYMHZsuLTC2UK7BDm15VUsVC1aW3HLrdkstENDzciJB0m/SsX2SUWykWREXELJjZdZhEwyX6Zkzx0U8p8NtpAyUjVzBijgJTPYR8YASwA82+Nl394zLv9b5Ryv+SAD+hSyBO6Nv8vjr4sovT5waXj1M889V/y0Y2jKlL2F2IccKtDfP5wvES6Tyau/7kWYXek2DBVmk0XdPip9cnovQ8TFk2FY1Q0foS0ZRZ0032d5FXTCRSdVb62A+bhXRDwjwQw1e8tmLv3J6/7rVf3b8/f6JJ/7y0pWXkj96BR8t+CZKvquuvvqqq66+6uo3T60ZdjW/kOpvzpwlc0a3TZsWGFswUXTu+QoRtaP243wBMR0RWH8yaWnpOwAH/FLY1FT2Y3hRMWnBF0xG2fEwrxR7vgrsH5RCsVpFt+8Nc2LDM4QfAM7Cpu8e6Ox9JgnY7n5h8ff73z/xzl/e3uNt5/Nqb/R1czVx1a373z08TOKvVf+R/FuwYNX2kekwBaaDlG864+z5QOs2GulBEeNKqVqiB7qcT8g2c72qNi8paVrO5ANVKWRCgwP+XCVOfgNetYqTBlrQKFaybAg/59MLyQkOXABgUpd8/90dD3rKv478+/3vf08qwKN/eemqibLPG3WdaOHnuPKVNz8YcvLP2f4j+Td6bJotgEm5lSno7nHODC/Gs0rDzMdMXSTvhgRULWWfZfRJCqesuHOYq0eT8oC/SKdKkzdIaj0rQEo2iqV0gAZgQNXKrV4aADhLg0e+v+fBB8eNfnGdftAC8IknPnxpjzf4KG/eOa52/trhyv0nFg+t6tj+IwvgZTu2j0z6f/fnF+15ds4rGNLrLKYVq15IlWNhw6QDs3xCttJrYFY3UjKqqezlYU4tFcMDQfazyPCtXGLy/0/A9hHJbx4QdNN9cwQAzs7m79x3P9jol47lL4m/377zl5fY7l67nW/cCa+D1Xze7CNuvfrNU6tc+cfKvwVLlhwamSZTYGx+KRQrR0uuUVfsEm5cqRSKeSMU9CdydZpBpB2v18jUboKJfNP50WJ2LJ9IFGhFyAl6NdlPQScZKftaMR+v2yfJAPAD/I/XP/7Vvd2Xv6z+I/n326Nvv9Qu9yYIPhZ53YLPcfv+dw+7Ln9QCxYsmbNj+zR4CMmFxl9DSbtGvQQENa2UCina7Udal01NDNA5zfWeQ/O79cX4pUSZbC/SYw9RqdbyY+wi3CTzp9ukmKmxbUTRMidfNAPABOSR1+++1zP6xX38QfLvid++8/aXE+feRAWf49ZbbyUft15NdgAXOc1/7fpvx6FpMwaLksP5VKXVbMLwql6KlmMhZ7WbJAcRPi4Q0aJdOvf85OZcSJbkUCIkk/ZA7+cT5VKkdRBSKZRoAPKqYvYKUxcpVo3Q6Qm8Ppbpp2gEgK6krz7unX9P/JZWgN7Qszf6vGnXduutLPxartr/weE1qxd1HH8sWLBs2fRqgZESGbOiR8i0A9cCmE+XzKRrDGlOYWfA6Ua3idHk2kauVjRTxVo5l4mFx0VUMFyssKqPPCZij5YJRErF8WHaVTCRYiOrfYKW9/5wAOjfke/u7nL60dr+I/n39Dtvf+kca3Ts8k2UfyT82Ifb3lOLVtvlXyv/lixZcGj65B/d/CtokXHPuQWylbIzFIb0M6ci9BCD16t52bMEDZKpCcXCWMVSlFKl3iyYuRhdNnd8Ubhm2Q3RHE9eRiJ/F2/m+wxAf6jmTGzN5hCAAD/c5Z99d++f/9x5941s/9Hqj9Z/pAJ8xT7Z9UZdp87A63D17XvfPby6nX40/hYsWTZn9Nj6abMDKBnk7IO8SWQHX2vygaqY7W4XOdNkhxii5p5qxYSSxWpD0eMRVVTJQHzFGjNz48pEORnVnDMWe+IzF3H9FpOQ8vbb7YJSo7dJAOAHuWT9V3eT/Ouy+qXlH60A3/ySVHs/PP5uvf3qV45/MOTKP7b/t2zJju1bp80OIHnlqD1ugCxPIxHRXqnG6/nWBl3Y1OgtOT7eqHlugfhDGbOkqwIZ4UznVgXEiG41azFPTA0mctV0591iLl0bt1aeiD/TJAHI8eLZtiECQKfPPv6Vt/yzA5B67LdPH33pFW/4kYKQtrb0Cr7bbycf1NWvnFjTcfpL8m/JkmWjB6fLHRB/KFPQXEe/XCCiWCUlzlaqgpZqHdHG6mn6i6Jebacik8g1lQgb7UJ/Bucjb8LFrah3ep+UyDXsbUAbr+T77yjMl2jrTEBU0AkI8GMMbvr+4z/f78q/Vv3nFIC/PfrSKx3pd+utt79CkOPdifKPhZ+Tf7dft/fUnHb+sfpvybIlq7ZPjx1Af1AO5wqKSK9YsDwSs6VCKlWw6PwqLpCt550IyyjkLhrnI/NY3Lt2fimRqzo3dds4zhfRot6oHAi3JsPQL+IjpUzfU+79NY0dnAh6/+tmAOjikiPf3Xt/O/7o9AMn/H7728cee8xTAV519a2vvPTm2+9++OYr3tQjnMhzu/W6ve8enrNoTnv7j5Z/KxZt2TY9xgAGQ8lihd5uczJLtaLlZCKciWbZhTixtQso1eL0/MGXrpQ75tJLRrmeZfP+OnBs/qknqIJyjpVx7GsEvdlXGzQRDJvOXMGzWDcDQBeDl3z2zZ87l7/O7h/Jv98+/fSul8hSly52X3ll/5dfvvnmh7t2HT3z7pe3e9Ove/7dfusrxz9YZcdfO/+WLdtxevO02AGUwrloyZ4xwG59pC0zRtItVC6xRTAfIdfWaMxFydVdH8crZFi064eQeafj6j+KzD9NeRNwIBylzSzsKwTXiOjJhPJjTnTqee8nAeDsjHz3zZ+d1W+r+Y9Vf6QA/M+jTgCSyu/DXUfPHD1z880LF+56c397rdst+a5zPm7df8K9+0fzb8myZQsOTY+XMP2JWl2JtEYfkPgrlA2ZrEjJC5lsEcxn63mSUKFchQYgr1qpjjPgUIa8+zYRVTPDnpboUK7Z2gbkBCtl9LsHaJhsBczxainm/SQAnJ3QyHdPPfH79t23jvx77Omnj7790iuvfPklTb9dR2/+gli49oszb5IS0Jt6bddddx39uP26V/aeam/+Ofm3Ysno9mmxAJbCuXq2dfoREOJa3cw7i9tEucIe7SWLYLLllzBZA4uQrXecAfuNlMWGHHTD8ZFKpt1KSMlG0RkM4+NEK9X3XME8uzviI28j9Xd7DgAmdvlXf3bVf+3dP5Z/Tx/d9eHbH3646+jR286su/lmUvwtXLhw7dpde18h9V0317ndet3eE4db6deq/2bNmR5jAKVwuZ5tdaTwQrqUyhut/maZTL5iF3cjFZJ4YfqGJcem+bl+jJyrZ9tnKOMESMdK50mwX4qZFn0RmFWI/QaglLI7aDi1gWEIAD+Wf+Crj7954okuy1+Sf+uefvro0V27jt5GKz8SgDQC167d9aU39whW9nUG4PFTq7zL32XkEtx02ACUjDKZzsKii5R/1Zr76kYwlHNOawWlEPMPJC2y/OS4SMl51cj+MSZ7SXMifLaa9+4CyjE2CcYerOW9VdJVMBSz+7B9gXQUZ8AAP96mrz523fxob/89/fTT69at+4R83HbbbbfdfFur/lu4dum7tACka1znw1P7MbfvPzFnAfnDiT+SfyuW7dgyHV7ClMK1uu48NxkQs6VUWOqcX2A4ZZoQscqhUFkhm4Uclx7LuQ8tyLvn3U9AHJFScXy5VnRaYQICnY46qWAoaWpspc2LSq6fyASAnvzS5u/uZ/lHI9Cp/h5bR/Jv3bpPPvnkEzv+7ARcu3bt2ndvuJUFnrPbN4H9ez9YwOKvXf+tmLVkerTAhIsVnT3WS7pVlHpx3FNrcizKoo0XstF83tTpVwtKNOm+wxd2xpROSNSj42ZXBVOR1ufJA5yTH4PIGdOeCM2Leh1HIAA/heBX39xPTj868s+OP1L70fqvI/7Wnnn3ult7xF7b3hOHO9Nv2bIVK2bNmQ6XgP1Szorbx78cH9eiuXCXDMrbZxWcaBUKlTT5ej5e6jwDjhWUjgla4/HxurfEk4wqe3qO/fal8rhLw+MYZsnuNRSzjf7PTQCgh+Dm777xLH/J9h/LPxqBrP5jq9+Fa9cuPXPmzetu9WZdNzccP2zv/jntf8tWrFgxZ3TqW2CCcjjfbDUjByKVYrKjs9lhRMn8U5pRuqaoZFKWqDdz7vQJJgusMpxYQGx4WwET5UYrAH0+QS9kvCWiRzBU1uhzTD7OF7fYq3IA8KNdvvnjzu4/u/xbZ8cf2/5r139L155484YeBeANNzgfZAdwXP23bPTYyJQXgJJRrupO54qgauXWxNNOobzTsMcFVFUIkNc8tI4dO7+cr+ruCYLd8CVvABpRe7QzE7FSPRPNLyUyVfsAhPRht3p1AODHCV7+3Tet9e/Tj60jf7TXv/b2Hyn/7PxbeubdvRNu/N3Qct11+49/sGCJ6/SD1n+zdm7fOvUPgYRqTUVlc/XI8cf42VY28goHO+HlOJ6OQuUiVtE93iAo2wOqegiIVtmzZGWTpR2ckHbNnOkiSO4rO9Nq1HreNaIVAH6cgx9/87Sz+2evfjvzz27/Y/m34czxL2/wBh9JPlf60QDce+IwyT86/MCOvxUrZu04Pcli73wwmvb5hy8g6vXahC0lg6F2fUdHBHK+eKPs/mq/nKukJwlAnjyh2ZlYeXajwxEQlWjH7boOfn+iXCXjuugPE/WUp68aAH44/79/9c3TJAFp+ddx/GHnHykAnfxbOvvMm/tduddR9rmQHcBW+UePf0n8rdixZcp3AP1SqEYn25OCTtSb5R430YKJXKM1KYH1rIx1zqIP5qzIJAHo47ViRwAOhooK+6kBZzRgRDPDE82ECRrtC3t8RKlmJvg6APgB/Os/foLWf+s66z/78Nc+/6Dpt3Tp7A279s4jqefa7Otm3v4TO5eQ+m/Zkp12/XfXXbNWTP1DIHQ/jV7qpbPtm70PYINh084qFmWiEk12fkXOYovpiXE+pdwxFVBORtnWYkAQWa5xfLyS7z7iOUgeErEbFjmfqlW9y2kA+DH8l3+174mnyeGvfQDiKv86Tj9oAA7v2k/TbxJ0B9Au/patYPl31107p/4ScDCRj7LBzj5eiDczk5wnSJmC0l6tjhuEMBDM1CdbAvsCWi7hrtoSZfY0Ei/Es2yKKmkv7D7hNBiKFS1nXgPH6dF8z8AGgLM1OPLdN+7qzz7+9dR/dP07e/aGE/tv9274dbH388PL3KcfpP67a+fotqk/AU6aFhvsTIa/1HqevhKhPBuKQPFiw3NaISWjSo+bwERAtDo6Z8hoffq6Ja8qluachsQrtS57e1Iik6pEnPt6vFrJ4AAE4KflD27e5y3/2r3PtP5jy19i7bvzbp8w/ubdcMO8efTvjrfzbyfLv7tmzR/dPvWX4KRaJcsWteT8NzZpmkhG1DXsSqx7HwMx7IdCJiakK50VoFFn/wZCeswsWPaVEFEvjC8BpXC5qqXZz6cH1sXQuNeGAeBHuvz9bzpPf13ln5N/s2cvnT17w9JTx0kF2B0Jv3nz5t0wb97+zxew1S87/KX5N+uuLdOgBSZcUOgNXzLVwEz2aj6xhXJj2VbPtFrwhlS4VuoyDNqFE5VqviMAMxYtAH2ibsbyUd0+3lCtWueNOf+gHKuNkf5rRtQbKVyBA/jJDcojH+/+z08648/V/ULrP1oAblj7wZvzvAXgPC+6A7iMJOCKnWT/j2z/zZp1145jUz4Fxi9nSvYNYE43k93PHToFjaLTtMIJWdP7HXKs2fMuMMeRu76ulbYUJmfAHFlPa+VgMFaJs0VwIN2odZyVSKGYqcXZeTU7gC52PEUCAD+NwU1fkRLQyb/27Bd6+a21/J29YcOpE28+TJe6vfLvhr1vHF5B6z96+sECcP6OLdu8v+95F4ylnDMNoZTpJ//IoW1r3ouQLRiebpVgwlTY3MDuOF+62XEILGcKOh3CL6RLmYEBOcXqQY4TslXXoEEpEStHNTVg7/9xgj42ccMiAPwY/s0f73Y3v7RmX7nzb8OGDRtOvbuXpB/9mNDDxw+3Dz9o/N01a/780a1TfgQ8IJXrcTtQsoWOdWkPctHZqAuIVscwQELK9z4HFpTOV0FCRfYuZkBUqjFyzOwsgjleMWPOIRF5q91Kuzpw0oV8YqJOQQD4cdZ/te+xm53uF5p+pP575BF7+4/l3+wNw6eO7ycVIN3om8AND+/9fCcpAJ3dv7tmETu3bJryI+AByVTYndpAvFTrt56Saw1neBWfLo17kdxIaT12AcVsvWOANN2EJEVoQLTIk8PBhPP8EsfFKzm2xpVCSbOuxZ3yjxfjer3zJBkAfkKDm7/a/YX79Ld9+Gvn3+LZizdsGD6zd3+P7KNueJ7uAJL828mqv7tmzZq/c/T0lO8ADgzITbadFyB9d33WU5KRKtmd0yTQSuVw5zcmMs3sRAfBASFbKXZWmrGGveknVkhLjV9ORhX67WTafop2+UnhXEGLt6Zs8areMDOo/wDOoZF95N2PVv33yCOe5e/ixYsXDw+f2kvOer2Z1+GGvW/spGcfdvlHCsD583ccm/JLcKRaK9lnrmKp5/gBF78cI0Pv7TDifHrno5h0tnQl64wq6MBxfLZS7FgA++Wcc6SiFujWoD+RG7MLTCHdzIcGZCOTcoa1kp8RYNP6+9qvBIAfJLj5/W9uoy9/tJa/nvqPFIAbPth/nTfwyKbfw/Pmkf88TP/+ADkBseOvFYCjU98COOBPlC22rcZHmv2uKP1SrKC3Kzw+orEyrU0yaiV7VoEHJzZqnVeNpZhzty4QSdm/lHCuBvPkwDiUTDU1NdDa/eNEy0yi/Rng3Lp85OPda1n+0epvLQtA+/CD1H9DQ0MbTuxvl3833PDwSpp4NvJ38+atJDuA7eY/av5dO6b+EhzpaEnZE06FbLTfHUC/36i4Z7cI8UrNswiWjdqYEhF8XGcZyIsRrWh0dq7IubEsK0JVpWz/mpSs2gnL642o2bR01efs/gmqXkrFutwRAYCfUnDw4O4vaPnH8q+9+p09m+XfhuGhUydWuta/D+/du7Kdf3YK7v/8AxKAdPtvFovA+fPf2rJtGryEGUyabH49J2qpvgNwwLA6gk3Q67mQ5zwnlIxqzoh9Gy9G9JLp7ZoJpewx+3y22RqrkMjV7csmalbPxttxy4tprZALY/ULcO6NfLybDD59hHA3/y1evHgDrf+Gh04dJxXgDTfc8PD+vXuPH//gxN79ngic9zzNv/b2H8m/5TumfAoMETRSdLHJcZFKx1i/XvyhvNIRgAEh3ey820a/KNpQ0qpol4H0oaVGtDauczlc1dmRsaAVW2+bS0bKvvDBi6LAk9H7bPcvolTaT7UDwDnk33Rw382PLFz7iLP/Z2/+2evfxUNDw4s/OG7n3fN7j584tWrB4RPeGnDlgcOz2OgDe/07f/6s+bO2TIf8GwiGa7QNmuPi1bw3mibiN1JsKGogYG/McT696n3LV0pkitWSpqdVgRdEUVSzVoG8M+zJyWCywXYLA2q9HY6DoRybD9MhIES0QhnLX4Dz45JN7+9eSvKPnX7YC2CSfqT8GxoaHh46/MHe/c/vPX78xAcfHD68aMGCOScOdATgvJUHTuyc5dx9o/k3a/7ynaPHpsEOIOm5q7Fijos3xz1WPhF/pknvAvOCqNoPhPhUzTu8yi+FwsmyWahXSiVLs+rVaDmZGPfgeTBcs1QSgLyYNV0JLOfrdje0jX6J3qzFEpL3ZwDAOXLw0M1277N99ZdWfxuGSPk3NDS0Znj41Injx49/cHj1okWL5syZ01kBrnz44Yf3v/fqTlYAOucf8+fP3bF96zToAWQByAIm0ph8EJYtSBqV6RFtVnfKNCFeaS9g20KxfLlcrhXNYj7pOfxgpEyUbUIKccs+AvEPSlIilirZI2psAUGNK9V+O3UA4Kew+f19S2e7qr/ZG+jun10ArlmzZvWaU6dOHT68hqTfnDlzlhx+by+JPSf+VtIdwFkrnPibTy0f3XqL93eaEsFE2aJ7bZyoRPs9WpBSGjmhIK8HNxtxgW0HCtlKlzV0UA6FEolwOJwIyV37VqSa/bqwqFQz7JfkRCyfaraHHhCcT81azWKyYzYCAJxjl498vLAdgGzzj61/h4eHSP6tJqXfIvqnOYtIAB7fT3Jv5Ur68fDK/QdeneU6/aAROOut6bEDSI4qMnU6XY+9w9Ytosbxk2EH7FsqtWKJjUXgAuQt37Ovz0JRNouLj1hFY2BAkmSybm5a2Y631QO8ffjR178gAPxUBrftXmsf/pK7v87uH1n+EnYAsvXvnDkLlhzeS7LP+WPeygOf71zRPv6gFeDcndOiBYZJFFiCkXfYkn3lixyLsuvDQnrMCOXIQ8G0BhT1sbM/nzXq7BocHx9Lyn4pnKyZY5YSV93lHxn8UknljdDZ/nAA+JGCI/t2L93gKv+GhjY4y981q1evWr2I/EGrvzlzFixYcvj5eU76kRLwvs9f3TmrXf/R9e/cHaenwRQEG1nP2vcwyJS+PmqsUKaqswDMFuQBuWa38XE+QY9m+isiHf5Q3r6IQsZqJWL5YqGhZWkDtSv/6NWP2LjzEwA49zYd3Ec6n2eT6o9EIFv+svJv1epVq5zFL4m/BQvmfEAC0Pbwyoef/6Dd/GLv/83/enQ6XAK2ScmozqqtgKBUy2F50gRL5Ou0aCS90zL5fnaXxI7Qs6rSgjFTYfWnqhTytUJJJ42DzsuYpDuH/VW1zH7v6QHAT2r9+ws32Ke/zgJ4Dflj9epVq1atWsQS0M6/nYdPuAJw5cPPH3jVbn5p1X/LT06TFhiGHIOwAc4cGVVf9o62Gi+Rb7BzE7Wek0kR53Qyc0K6NG44YE/BciNttztnS4WKEuFJ17RT/XG8aJ8xq0q0yxEzAJwHB/etXdxa/7a2/2j510q/OQvI+nfJgldPPD+vnX8rD7yx051+8+efXL5x5/aRadECw5DJBvZEQPIoWzM32UHGYChv0U0/LhJNyqThudxs1ZDpRnGy73eToro99IAX1I6NP3LIwqmKvboW0pXM5KUpAJwDI9sObRjuKP8IZ/lL178k/kgALnrj+H2uAnAl2QF059/y5fPn75j6OfgdErW6M2iUV9lpQ6+wGUyU7d7ptEnLvcFwzn7UjZyLNPpZRVN+aSBRsQ973Uce7BdENa6XmmxQFhcQtVq/TToA8NPavG/2MLv761R/bP3bPv2182/Zzs8P3NfKv5Urn39jRUf8zV++fPmOLdNgDJYbuXfrvOER4IW4FS137Vl2GCYLQEFno6D9A1JurHVtI94odo676s7vD8phI6d1GxpI26J1rVnM5ZzVdSB7lruLAPBT8W87tHRo2LX89eYfib8FS5YsWXH4872uAHz++Kvz2/lH42/uyS3bptEOIOGXk2aJdiOTZSfHxbVmKh8LhyY6ds00sz7Ox/Gq1pqFHy62htjz2Xpukv06vyQnwrF8LRWtxL0ByHE+nhezWqVAKlHyc9m/V4TsNwLAVDh4bPcwC0C7948ef7irPxJ/S5as2Hn8eZJ899H/rDzwxqd3kfhzBeDGr49NmxbAFoncvHUungWEiK7Vo8V8bILdvBwNJY62LtsBSEdEs2/nRaWQmXiP0+8fkEJGJleMViwl3dHtTHE+QY0oTfK7S9JAkAzHp7+uauYE/zoAcI6tP3iIVYAs/lr5x05/SQIuIQm4bNlOugK+j8bfyvve+/Suzvibu3xatcC0JYoVXbTPXwO8GMlqjYJZzsSMxLi6S6rRxkGOj5fKzr6cXyZXesnTvuROh9LtSohfkiQpYcSSuVoqOtbQ9HTEnqTgRB+p/YRIVilVU3nD7qgO2SfOPiHbjPWxsgaAc+DyY0vJ3bfVTv61Tj9c5R959ejwgYdX3kfy776V9933/Bvk7SO7+YXk3/K5y0ePTbMdQEaOFStZFmBUQEgrVqUZTeW8daA/RG4CkyVwpJRvHXcE5WTVOUsOCHrnaK2gFByQQmHDiJVTZqGkKdmIEPB1zEoleDESz1rVaC0cDLaGpoYKdNwC+d063hIGgPPHv23f0tWt+KP1n334ax9/LFmyk7z7++reh2n23XffypXPv/cquffbKv/YDuDIeu/Png4GZSMXtbJOIwrH+QQxkta10lg0Vc4nw/IgqeDIVwYNstqlAdiIuX6CnIlqEXYt2Cfq1Rx5JcQvyXJQNmKxTK5WNAvVeklT9Dhpdaabja1+P1L78RFdq1TNWj7WcdwrpzSVfiHveUwYAM6bwc3bDi1aPexa/rabnxfsXLBkJy0Ad376xvNsAWzvALpPf0/OnTt3+VunvT952pCMWtX18iStydR4VtFK9WgtY4QNIxwKDvhDyahiz4Kpk8MOv99Pd/ZoP6Ezup7Xm2VDlhNGLGZkimaqULIsRY+I4vhNP0ogtV8hVY4lQnLnJUE5V0/TgdJcvJAZtxwHgPNjZB+5+9Fx/GFXf7QAJOXfip2HPydnIKQAvI/sALb2/5iL5u7YMi13ABnZKBesrOg8ZET+wguCSEJQsSrVqFmslfOZTLlJW1M4Pts0BgaCIVkiz5bL0kAiZdmPWZL3fMdM0zSjzXqlZGlKNh6JkOoyEHDf9GACgppWKoVUOWkkZBqnbs5NPY5TrSICEGCKXH7s0NCijurPbv5bYK9+ybu/r773PIk/eweQ5Z+9/J27fO7G5aNbp1kLjJtfCufNihIR23dxCZ7neY4TIorVqFTGCtEouznHCfpYzggbyWQsnIhlMjEjaZbsACQlna4puqKkVUEQBY4jwef+oW0cfSqkHJODXXf4gkax9WxdAfeBAabIJSPHls5ZNL75b8FO+/yDvPv2xgGyBKYRSHYAl3fk39y5X0+HlzAnRofYk4kE5Dy4I7BIMSiqkXg6q+v0BIMEV1orVcaa1Wa93mw2K41KpdRaApOTZFUUyXtGPh8Lv/bPoz+c45znRAS9UkxOOEbLH8pU7MBN4xwYYKoMXrL1EA0/z+4fW/3S/JtF7oEwK+878CrZAXTij/p6x/TdAWyRY8WmFleFjoF8dm75eHp8wf6ZVyOqGknr2QgJxrgqqvG4q3hkKef6fkeAJ28kCc5vwIlWatxLcS5Bw36EnY83vC/PAcD5Ety0fXTNnI7yj6x+lyxbQnb/7AB8nh0B33fffe996t7+IwvgjTtOT5M50L345UQsUyw0lIhzUuvEmP1X5x8DPM8HeBJkPE//RP48rrfFYechz/nESFZXLIs8m04/EenWNeiSSGm0vyYgWGiEAZgy67ftG5rDep/t5me7+4/Vf3fdNWvne3b63Xffgc/bvS/MRXO3jEyPh0AmJ8Vq0RJpWBH5QICfONZYXegcbHSr9xw0IEVSKyrkgTizUGLPKQV4vdg71uRyPUJ/ckBJGT2/EgDOHf/6baNL2qcfZO+Pln87Sf1Hnr2cv9NZAbMdQKf5mUbgRSd3bJ+WLYDd+OWwEUuWow0lQterHW17Z4u8ak7WyxGlVKqbtVo5YyQyUYuOwuf4SQddkXNgNjIrW8ggAAGmzMgh+vhb6/LHTpJ/dvlHBj9/esBZAB949VMn/+z6b+Nb07kFxou2o5A6sKJpCm1epucZPO/dGfSwG2jcv8SrkXRW10qlRiFVLBuhBHnaw+kZ5ATLNHrmH3k5WKPHLny8UZ7orAQAzrlNp7esWuLs/tnrX7r7R/Pvrp1vtALwvU/dp78k/zZO6xaYrtjUllwq2hyrlLSsGgiIqsi74s3ZI6TrX/tvA3ygo1gMqHrDTKWKuaRhhBOyFAwO+gcGcs4UarVKhqr24peS9n3gCDoBAabQ5SPHFrMAJOUfa36244+Mvf/0jeftBfCBz+d27v9dNPfklgst/2yhWCZHb7JVNE3TFOe9ygAviKqqkmYX+mdVVSPkPDidzWaz6YhAp2ORr4to0WSY3iIZcBawwURKp0/J8bxeJJ/ozWiylztFxcQxMMAUOjg6Zw5tfXbufrTXv7PuevVzJwA/f9Wu/tj239yLNn49enriGVHTWlCSZDlkGOFwLF9MmWMaq914Na1opZKlKJpV0nTFKjWsUr1abTYLKbNgpe330smDv6lwMOgnMdeacJAbY7PuhXgp6fntugjbjTC0E9D7SQA4bzZvH12wrHX6S9KPxJ899f6N9+wAPPDqp6QCbB3/XnTRxrem5xSYvtFJCLJhxFIl8owRx6t6o2AWiymTrG9N00wVa8VaLp/P5zJGLJOq6M6we5E0OneWeYb9kBwf0fp57CiUsmgjDK9WJlsvA8A5tGnrvkUrWs0vpP5j238sAA+wAHz+PTv/7P0/YvTCzj8y7mBggJRx+QZ5E5NMAyzGwolESJYT4URIDiVCMikVydQ/SZLCuabuXAsJiPoYHQ7TkqFHwGRqzFi5j+ttoXKFNcIIJQQgwBQa3HR6xwJ3759T/5EAtO+BkB3AFlL+XbRx7lsXTgvMJDL1LK0AI6WcPDhAR7fQW7ydm3PBRK7gTMfifKJScF3iCMrFLDlN5nyR3pdAHHKuHqdRSlqhvZ8EgPNncGTLqiUr7PLvLrr+tVfA85fbK2CyA2gXf3b+kRaYmRGAfjk/Rl8ECYhartfNXDI2y94tJGtXrXXdwx8MJZt0Rcv59Gp+8iMQNhKL/CRe1Ez3CEIAON82bzu0c5Zd/5HbH84G4Pz5s+x7IAdepdlHIpCufi+6aOOO6fYQ0g8m59mTSAFRy3g/1ymUJ4MD2VEIryr1YixEEjMYSpoWOyIWrZTROf2vOykZTbMgVVKxPgITAM6Vwc3HFtDDj/buH3v3aPmndgC+92l7949F4MktF8Al4P4EM6wC5FVrkvNbKZFvTcknG4FaNE9mvkhGsZKlAShkq71vATukcCrLWg0xFRpgqm0bJQno3v6jY09nvUq3AJ8/8ManG+31r13/nRw9PTMWwES+kg6wF0FyE72baZMSyZRlP/zGcb64FSUvhUjkeIQ8quSLW61nNXuTwkUWgD69kOz9ewLAOTayfXTnLJZ/Tv1Hxr58+gYLwM8/dZ9/0B3AY5sv0B7ALvIN1gYTL9U6Tna7ShQrWee5TfLiekwaCNtbg5xPj2b62QEkE7FSdCq0L5Ct572fBIDzav3WLctmebb/5i+f/yoLQHsH0Cn/LrroormjW/vZ6bowSO1DkPLk8SWRtsEA2wck7w3XzVyxRKcg+DjOyid6HaO0SWQqND02jjdyk/6eAHBOBU+vIqvfdv7RuX+v0kPg59/7dONFtPizI3DjyR0zZwdwYEDKFHRyiS0gKD1PgRly4lGKOBMUyPT7SiVLJxsEOL4a8vTOTISMQyBNhRwXKdX6aJsBgHNp65Ydzuaf8+7b8uXsHsh7bAewXf9tPLll68xZAA8Ek04AavnJizF/UA7nyb04ugwmU7GybEkcECJKcfLvZ/xSXmFFY7xR6z08EADOuc3bRu+ab59+OO/+zqX3QMgOoFP72QH41umZswAeGBhIVnV6CDJJH2CbFDMtNvyUNLIILAv5iFaY5BS5zT+QsQMwUppkeioAnHubtu8kAUji7yQbez93OZ2EcOBVuvZtReDGiy6oMYB9aN0EsfosxvxsGWzPRmBPIXGi0iz3cQuYCYZydA/Q5xOVVF+/JwCcQ4OnR3c61R97+WjuXDILy94BdNV/J0cvhIdAzoIrACc/BaZoAmbdj23SUq6/FhgiGK6RBCUBqBe9nwSA827k2I75y9nq1xn89+p7z5MpCK70owG4ffOMWgFLzh4gr5R7j7JvC0rhfEGLs8UvDUBftpDs85vtAIzzHHkcXav1/20AcI6sH9lyF3n113n4Y/ncuZ++8d57r7qPP9gR8Dbvt17YpGRUoatZXu87AMkNOucREFu6UgvLkzRStwRDOUulARgpYSg+wDSwfvuOu8ja194AJJ1/n376aUf6kR3AHdsv8DFYXoMxFoABQTmb8wg6G4FcALGR8QjlWKi/BPUPJO1DkHS9j+ZDADjntm55y6n+7GffNm7c6A3Ak1suuIdAJhMzNbIdFxB0s/9dPJKA5QqbaEBxPlUZS2USfRWBfimns6tw6bFcn6EJAOfSpq2j5MXL1txnsvgdF4BfH7tQXgLum1G06Iksny2czXRSfyhfyLofS+IjeimaYxNiJiEZZpZ9T3asj+ZDADj3Nm3Zyao/uwD0HH+QOPx6dGa1wBCJXIldZYsXMmcRgHKsWImzAHQeC1HTSiNajk0+EEbKV1nxKOjNSWZwAcD5sf706FvO3KsJAnD09Mw6AiakWIM9g6meVQVIhmCJ7fqPCvCi3jAzky6k5VojTp8QUZVo393TAHBOjRzbsdEZ/Dcu/YiTW2bQFBiHHBtTSXpxaj03efHmkMsV+40QXlRVZ0QWxwlppWLmYuGeB8qhqG6/oWQVDe8nAWBqjIy2B993ScCTO057v2MGkGMFXSSdgKqV6jsA5WTVeU9YzCpK1nkvicSgkLYKtR4Hwv4Bo8G+l4/X833/lgBwbq3fvuMknXzQJf3IGMDtM28HkDx3ZCo0AEXN7POFIr+ciWps49DHp5tmtEIi1NkQ5IS4Vo8WMzH6dvo4fjlcU1j/jJiNhifMSQA4vy7fuuWt7sUf3QGcUVNg2qSUQjbzOKGvN31J62AoZmoRkplkG8/KhzPFuu66GRcQ1KxSaprlZEL2++n7m21+2aiNsdMTPqIVZ9yWKsCFa9PWHe7JB51mzkuYnaSapXKcjxP0aqyPHpYBv5w0Lft9OD5imeHBUDhTHNPSYsCuAgO8IMZ1ayxazCWNsOdkxSBpSb4sIGQruc7PAcBU2rzl6+7xt3HjW6Mz7BKcQ87RfhaOjzcyPc8ubHIsZdFXLWkNF2W9M3IyVdFV1+1gMi9aazSjqVwybL+uHgxKspSoVXR7B1DVzLO4QAwA59r601tOerufqY0bd8ywKTAtg5kqGYrvC4hWvp8ADJutW8Ci5jwD4g/FaoWSEndWwhzpiVEjWcWqVKNmMZ80jGQymcnXoq1nlYRs3fW6OgBMuUs2n35r3AU4GoAnt8y0O3AtsSg9lAjwyuQTAYNSqEwnudCXMfVC3omwoBzOFAuWHmlPSOA4jhfj2ayulMaiqVQ0Gi0USnrEqRJVyzT6WXIDwHmzdfSkN/zYFJhjM/IEhDBMdqQbSFfJO5e9DIZixXqcrX85Xm/m23d/g5KcyBSrWoTsBLK7IRzn43lBENRIPJ3VdT2bjkfs5hkyfME8m8ZrADgPNpNWmHH5N0NbYJhwjd0GJp2AkzTChDJmg72C7gvw8UrN08UnG7loQ0+rAs/OiFkK0nsmHCcIziEJ3QDM1vt7RR0Azp9Ltm7vEoAXjc7MFhhKTlZoAHKCXjCCvRalUqxADntZBZctFb0jpP1SKGHkzYoukirQNSmBbgrS19Ptf1CV5uTrbQA4706/5c2/iy76esvMbIEh/MFwIS1w9HH0nufAftL/x+58cD4hXUrFuieYUSZbfeR+nCcEWwKqVi2fzfAtADhPRra81TkHa+PGr7dsm7kF4EAwUSyRTkDyNGZt4nPZYChT0Oi1YfagZSo2wRaeJCdiebOuxXln+evKPhK0PlUzM30+og4A59Wmca0wpAVmJl9ZkPNVez6fHk1OVJeR/T1NDbAwC4hWKib3+H8KklGO1i09HVEFgRd4Ugz66PwDQVTJ4MBkj0oTAKbQ+mOeADw5OsPm4HsEk6ZCdwED8Yb3XMMhxYp1xa7/yBwrM9yzggvKibCRzJl1LRuPp+Miz3G8IPABMa1rdTM3UfEIAFNu646TrkXwxpM7tl/u/ZKZJZRvsL09UYka3Tb26EuYul3/kWkH1Uyv+CPf4SeL5lguVajWKyVL03VdURStVC+Y5VhiojITAKbcyLHRdgCSFpiRHou9GUFmxyA+Pl7JdemE8YcyUY00tzCRUjTf5avG8QeDkiQbyXKtWCymolGzlstnjJAs9TxqBoAptX6kYxdwxwxugbEFi5rKBhToYznv8lRKxMpNxR75x3EBUUslz6KG88thwwiHjWQyFg6FQv1/IwBMjdNvtWcivLVlhl4CdpEyhSy7oibEx2LuAwq/XwrnzEa63dlMlslSzw1ADzISa1CSguSv3ulYADD9bN2yg10J3rjx5JbTM7cH0BE0ippIdvg4H6+YrisaUihWNutaWnBePhLjlnk2jycBwAVn/dYt9i7gxrd+BvlHHrmsZ+kuIMepWjSTILc6JH8wZORN14wXH6/qjVQYW3gAM9um7W+Rh9E3bjw5A1/CHM8vGSmL7gLSM96mWctlkslc0SxUlLhoj/njOE5UmsUYdvEAZrjBraPkRtzGk6PHZv4OICFnClkWdAFeZWP8ohVNyaqC3ftMu5izhVzvB98AYCbYtHXLW1+ffGv09Mgt3k/NSIOhTFWho+pJ0KmRdFbPxiMimetiX2fjxXTJTIbO5vgDAC5Mg7ds3TI6umX7z6P+I+S8UwPSMtA10YqGohjXKzXv+BcAmKE2b926desMfAl9IsFEua47p70dMww4zidEyIPnyD+An4/Bn8fq1yEZxYrz3HkHXlCz9LHzbrfkAABmAtmo1RWVp6ce7ESYjjXl1axWyMUS8kyeiAMAP3eSUS5o5OA3wPOkEuR5XhAjWa1uZpB+ADCz+SU5VmxqcUFQVdHHkcNgXRuLFjMJCfkHADNeMJwzxyxN0xRFV6zGWNXMJQ1cfQOAnwO/JJOHjYqmWc7XavlYOBGS0foHAD8jshGLhaREGDt/APCz4w9KUjAYDGJ4FQAAAAAAAAAAAAAAAAAAAAAAAAAAAAAAAAAAAAAAAAAAAAAAAAAAAAAAAAAAAAAAAAAAAAAAAAAAAAAAAAAAAAAAAAAAAAAAAAAAAAAAAAAAAAAAAAAAAAAAAAAAAAAAAAAAAAAAAAAAAAAAAAAAAAAAAAAAAAAAAAAAAAAAAAAAAAAAAAAAAAAAAAAAAAAAAAAAAAAAAAAAAAAAAAAAAAAAAAAAAAAAAAAAAAAAAAAAAAAAAAAAAAAAAAAAAAAAAAAAAAAAAAAAAAAAAAAAAAAAAAAAAAAAAAAAAAAAAAAAAAAAAAAAAAAAAAAAAAAAAAAAAAAAAAAAAAAAAAAAAAAAAAAAAAAAAAAAAAAAAAAAAAAAAAAAAAAAAAAAAAAAAAAAAAAAAAAAAAAAAAAAAAAAAAAAAAAAAADAuXP5/7jc+0sAADPf//kf//2v//Iv//LX//4f/4f3UwAAM9p/+f/+5//1v/3X//1/+V//7//5/6IMBPj/27t3FtW5eA3gBkmQ8KYyhRYp0wuniOQjJBKriIiSQgsbUyUIYjOCvSAiM4qF44XxAuKHmc9zWGqSlYszs2/n7HE/v+blHXWcmJ3HlXX5L/iXVEdtS8o0m82iZLVH4+jDAAB/l//yEdEnxEVfcXtJfllxlQLHEFxBnZ3SX/hd31P0A0gUfREA/GWy5fWhTXnb9Kvp6JPCsq1+5/3Ve8Fr+7hfzC8Xe7q+l3nuGoAix8qD1ie/6bta1kebN/pTizl2Bv3pGJ0AAH+3bGlk8aLgaxr2qRF9Uli68qY2i94LioJhDRqXAGyc3qUMe8k/hmEzWvv0oAMhjf6L3gw+swQFxZp1+qtSOod2IMDfK7/supLYzHia/HDQij4prDwYSk3/Fc2MVutfW3rjnqtTASi5k1L0tY+h0beN4BNIIhQk1XRqL/sTOkIB/matnaWLXmwxomEeV9GnhFV3ps4FL2Ct7fr2wGGoC97PWUGqDUJXfz6bzQWy2e/bNmpU3qSi/wkkYnlOJI3jdr+6zEZf/708znkDiCv1XOpqJoMX3Q+v2OXalhjWf0GRr42q10fGh5ru/ya2KNUGdAsw/1yqtiiN7ztE8sUAFEROV4ftyiddCn+5fLpBn7Zq6drhC/AY5t2jElzNfEFyRuWPEnDcH7LXgY4LUX9bz6+PlEYzSfADUNDsEX3pZ8fT0WDQuxlM1h++y1/tCwF4xYpCQX2vVL/tkV6GyVaTnnfeBoPJ9FsfDUBErnUwecbPLUZUD/WPhi9Xe0v0A5BnDbkzvl0Rz+eOKrL89QGeU/f1JfW63GpQU2WPOTxUP3qXv9qXA5DhOd5Qh73vnBm5cW9o+udNHh7WDzq2D/+mbLnvSIVrbJEEbEofjt5mT+9yEIAcrw17twZgKj/v15QCxxNcQXEroZul3GKnNJtFQmhmBG1X/7YX0tcDkESgoLteJ8F3lGt1FCGTuZy4YrOpHbv01xrAd5ef2qrhRxrpu+t9MHT5PKkpt7l+JAA52a4ED7YmrpQpFoVisSjNJuGrPjftqBmBu2GU7fedJfgjAciyXEGt9cvftuMsV31SGU68njaxqWwQgPBY6lsnGL1lRN3a1aNPCYz3lsT77UWRt/bUoHG61XNNWVEU2XInkYDLTTty8ZacLFNQHygAec4LiCs+FI48y6ubxQeN6r9brrqXC14XCV9UdwhAeCzjSWgc2FDt6d0+q+X5VSsEY8BcoVahmov/5UqrUefVfn0anRuRLr7HDUBWvN4fegQxnICMqDudD75T/m4IQHhw88VREf2rlS/oTr9xLwFLFZe6XWYZ7fUcuR4a08qoso5P/XjYAOQN1bQopqzovBjMlGQYkdFqledvehOMAIQHl6sOTBJKN6woH+6G0/ngcH5Y8rxkPkX7C7Pp5fMyHQ/QRw1AVpBm+95o4uttZ7LBiX43wXVo/em7jvkgAOHB5Z/7Q+1WxYX8I88om+5z9Ek33aMcBCDHKbXJvWdGPWwAZrTNqT6u+uqLUcd21EKwvIasC7T78Ubxt4AAhIc3fZMNP9ZYQZtN7lyt6ZGrMMEYsCi3T/G2XrIHDsBO/ZksGPPlctXRi+LPCWcYRtCdp0+WWP+tEIDw8FqHoVH0LlaW9NknT1zLlw6mdJvqfGkBWoOvd+6vnkIBGLt3/j6iAbivx74FxqOZWgg6Vjldfv9kifVfq3GQDeZ2zvmi6q38BngYjYqtBwHIGerLKv9f9EmXMeCjEqwDZrlC7bPaWYFsrAX4pZUg2XmDeI5FzP+jaAA+hZa8XJVGdmiJtVb7uD7sskwOsxz/RZ+4fT7lH29OZ5eXV85zSWc6EGsBLn78rQD+asvzVuH8YRC+oNdOiUveS6cZdavMG8r7mUqxdKvbOww8h976OpacHp8Gh0HvsKkp3sgAyxSkWuf63MOonjxLON3qjg7bY/uVaB+3h8niNywpy5Xri+7NYnUtZPijogHYSQjAbP0Q5AY5YGtUSv7rS6v+oLNpX46z3d489SrnL00aLK0qvaed//lsLjVYk98iYtk69Q7bjffKHXnL+BdZvnTqkfPTcTX/QFhRGx4P5MeDwWjxoNXO4J+TLfUs3bvNIYsXrEli1rR6Q9afMs1zkvVEXwON086STY/s9K4Dn+X1ziQ/lhUjmB/HFrTbU2V3FH+vfD5XWk+OQ9UQb1OMyZra4+g8/9VqTMvWaNM+Xu0Grdg7f0U0AJNagPllpUaPLBXVQUKTN5+dt05PM1PjvZnUvGbah24p/fFx5vPp1ulgW1rB+3xEXjLdbb/eyCW23X3/ZXONde/dUXX2+kqRK2iWfThVo2+ZP2+cywlSjKA3kzc09XraTHd/Dj0f4NvKVWrU4AYvyJ1p0o3OdGPywRiwoLihMeBG5V1hdA+r7m8BuHiTLj82/MuIMK5PMxLD9nk9aLuOqRgiVWNUk4duuzf1lh7/nPmqY6qXPJZN53Ude+eviAZgUgswlVq/m0Fzmc+oT6v4R1odbe2hpUp8UEuVl1SrZj/1k3thr8iuBJfXMUXqhbpiOrNjb5X0x/gai8Gr68haQfRfWmQvb9k5hd8yv3qRJXKWks+b5Gy/a68mQNT0aAZ99ryg2KOEnMn1XTU0BrwJlQ5s9F+kzKUUAqmG0NRuU9/KC5slPw7Wj1yw7OV5YtOMFUvJlqZPjiYWQ7OJGZYXRVF3totfqqM1X78zzcvSNYHR3MVP/apoACa1AFOpescxguZyRtlOIzOG8vPWZKayRTG0du5SSpWX7VH13tTpfLo+sVVGFMJr7lie44qi5uynd+61U6l8rlTZWToXf6UgMvLrqEpX8P9vZasF8d55E1hrhwCER9EaDBl/GIQXpeEhoYOn3HOk4EaZZ6xei75Gyz8WgNfnJQRgen1wZYkRBC4agIJAbvSeVvcu8C+4BSDHiUVWq/2eAExuAbaewgG46Ua+U6r9V0sxSM7HAlDQVef1XiXV0ujoKAaptxqNMbEoMJrp7hd3JmcuF52aLPECCcDIWwqioQ43far30QvAyLq+WwAWEYDwQBonO7haWU6X2/H5LelWRw369XlGcruhoZJG5YXOBSUIwCBbY7hMJADzy9V+WGhGLjsPK3C6dVh9aZQg0Xz9amQuv4pU7Po9AZjcAmzth1QAFpX2KRSA2eroTRGCwjphnMgpr5VxQhswV6rYMpehFpqE8FzGcLardEJHYL602Jq6QE3QDuEyBfnlFLQeSQAaoa8gmshYuAWGh7Gsb5VgORzL6JFwIxqLdykYA76EZOgpvycAy5WNJfHRegIeluN4yWovEm7Qv+ZPBOC9FiAVgGxROYYCMHse1JSCyN0JMp7jDLWW0Duaag1c1eDupRhpJ/O6ldSFmy/1Z7LEhpvVFF7kDXnW81v+CED4d+QbPSu4vWU4zomPzVYntQ9vk39HAObnpDeSbt9cb7moOzaOL5id6c+2Af9EAN5pAYZugYvKkb4FzlcHNSlDNf9ih8nyRcmOVVLNlvo1jaUWmdx6EujvCz6jO0/h7yZiXHlRuEjghrsleJFRZpXS7ZUIQPiHZMMDHEVzHxshXW0thr6iowMlvyMA092tafDUZcdyl12LqRYhy/KSeTz/D/3WX/cnAjC5BViP9AHuqJ65fGsylBj6MK+bM9PDPiyZPR2tpDrvv6p8UI+RFJwmo7lFIfRCVnJ6kRk+/z1XSI2GUOKRYZNw9yPPyC+3TU4RgPBPWe8slprior5XIndR+ZMtUxPbBLmzDk9sux+AXFMUE7rsiWJTpgOw9eToQfuP5zhWlzRF0SSDD17PsYbT+8ktRf5EACa3AFdHi54Go3TWwbPK/RclaP+RIDKuh6kzQSON5YvKLnKzX99aRvDWHFfQNVWVVVXTGar5yGWU9374hfN1R2WDVYyX92QLhlHg6RPDi4a8udWt+W9lK0yRnLik85bhTAyCwAOpjmocdYOrDAfhu8z8fEKPATMFZxRZd3A3AN0mkRHo2y9eyFx+2myqQQDmS/0a3TASi0VDHs5su2YpXMbfioTlOcUe/dxN8J8IwMQWYL7rqnSJHfUQFMTKnV9Ja8x7kBMyomK5tj1zZEMIRikuq7LpGgrZUn8YTFhn2KIgme5xP9gfXdOg+hN5UXIia61b+6FE16fhhEyRkVRFYpuZoHQXKeA/7F3f8r/1TCqSE5R83jLyEauC4XHMpy960CbhdHNXDd19pVt7ORgm4Qua212Gb8/uBOBzfT+0hsOhJetUG1CXyc+GQ8eiRh6X3Z0qBPfhvCQ77m4wGY16nbehqRjemCkr6OYx3sv1FX8iAJNagNnWwPJrCDAsw5sT//uC3AAz/mfBc7piDt+feqPR5HCcObLEex8BuQmuUDfB6WlHDuKIL2iWu+2dVvXVabKpmVKwYo03NHtNTerLz0+uwlDFGcis6aFrv77aNUfWjCA7xaL6Xrk0rv9rHWaXMyTr/utYXldv5234Ovmm9W0AEmSrHdnw7pFYlpHs8JqL8uJVogomkASiH74fgPlco1qtllr9ox9uLFNQ2otW9VJFrxQUOhjvHSm4FgXG6ZyqjfJ8Pi83xufeTBW9PjWeMYb9ry18jfgTAZjUAmyMbI0usy0Ng03ycpU3OZj/InKyPamXGuX5c7lcqlZ2VtBlyhblJ2obynLPpdZT85I7WTXmz+lcejkvrTpWUKiH5Xmn741mkORcPclU/x9bZGR7dK6WSqVSdXqoKdRGp7xm3Qa3co3xeFxtTXfB5Ccym2dUL13qHpbKP9cJAfBXmvccLehe55hhP3QTNZ64t+S4NMGk4SFaz+pOAHrqe5kKQHUfn+Y7n9qav16Y46TwbI7qxJZ17w/kyGq9n7kA/0QAPsU3Uh73X+RCMFhLCuxM/TwaP1m6l/M8Z8j2iPoo592tpXlbz/MZia7N2NrIhWbxMloiFjml1qMHiRdtM7jlFjNmjyrSVZrMpEzw17CS1Q7O7rlHJtYEX31KO7TNwXxAlcPKqB2sAIaHlK3Ysn/zxXCidQh1codXdhW1t0q0E+7jAIwXRI2mRr7eo/ZcF3jnEF7ysTy1/XLUvKi4k5+ZDPh/E4Clia2ywS4DZKu9rd9gLi9muj9iIQryW3i8IlsfDAu3T5q0tDfenWY+vbY1LlMUyCAEl+Fr4Ukyja4d9GFwRfOJGsY/t0096HMsGk7nTJU+KI9squdBYNwKNb8J5bDgH7F6sqhy96L6eu0Lupm+yP5qYZbl5H1sbf+PBmD09bnTUS16Acfr8ib6DqWRK7HX5OA5ybxTtfVjfyIAd9PxpZofUWqtFv3etiYX/GeQ50izid/iqvf8fVVYtqC5dPuPSK82qnGLHNLXurj1tf6Xaw3e7JlbI11wpmx1wrmbbe2CYo2cIB9P3sP5+WlIj18Z8i48Ubo6Gep+XBdFp0f1bsQCEBWh4TGN+7Wg1gvPKcNe0DK57hviXUM8Yzij2M5xvxqA5V5N8e7EOFG2Q/lLZKtb7yaYFCN8iQbkV/z+ACxKL71Kt3u6qvQ6L0PVKNwe9Z6jbdf+h9k9ml4PIM9pTqwrITUf1ZTbTTDLMtRoO+mVq54XlX5/sN10TuE5gtnx3tS9XkBOVO2+9/nlqj0zGDvhCurMz8arfGsXtBBF3tpR47sIQPhHzNcvkt+EIDu+dYK1qLnxgBoD5gx1tohVrPvVABx3TH8IROSdhGr7y0lNu2UHy5Ny1NE/4QvqRy8ADWWWNJMtYRVtRCgAGU43a+7M4w4tWWMzRXqtGsdI1PdFbuSqXgBygvqasKvK9OiXHeME83AOPSM3L42r9eliHR0EKlP7FfB0AKYXOzWYXFksDA/Rj3beq0nNzHVb42ZGtU/BB4sAhH9Evtox/VEGcnP2GpSWm693WrCcQ9StXfQa+uUAzNXbfslUljPcbrSPMZVKkV7A2+8Qi9YkVIwm0X/5kFSqPKVbgN1sNhV+xqe/MRaA5LMKCx65Eg3rGERteRAMNnFFa5AwnafVG/K3XkCuqB5P0a+KRPdbgPPRTAlagEXjJbaRQa678efX8Iw681+KAIR/x7w39O9BSQvJrfh3Z6EtLtii5A5iN26/GoDlxczPP95QN/E3SKXqA0u8NY1E0s0fz46w3Oqwa7+2Ke8zb6yULeiyG3qs/b7pfaXMQiQAWVG4tp0uhMjSCYbnRe0tKG1Fpht5OcWyRq2bkG7L7syrvH2vNmNcqT/T/EZ6KABLh2ASNMswaif60ZMKq5vZzL6Y2e0DNX6CAIR/RbbyTs1PEwTn4E95IEvUqNImWvsUb5/9YgCO+0PBu+p5Xd5W0+n0MiSbXgUByInyMeHuMWw5cXTxMm/EI1I7lpMSq/RjQtMYDhLqIEZFW4Af4wuS0wuqTC3Pbe3W0cDyBWnWbSxz4cPMpcenmbfqmhe12iDaYPPlyW6cuVw6nX4u9V/pct10AFY7lh+APCNZvdgmLPnn6trbKYXslUKVVEUAwr8ifx5Ygn8NiZx57HoPrd5l3R8DZhj5EJv58csB2Oo5RW/2B2tow2Mnrk11n4nqS+XzALSMYjMoG5/JFL2/gbwNR1WUJ5qFaIWbRD8SgJzISS49Ja88tf0lwiyjm2/b6EF2Ort3y5vSx4uac/9vyjWq9dVpNHjavF+WkATNdzoA60fZH+LgGLVG3eB6sml/HPuyxxz6AOEf1DjVvCm4ZCay6o6uIZVPn6gdfsiyhn6sWuAvB+Bq77fuGIYpSKocpyq6P9GDU2e3P+++5cjRgrWzn2EFqfZ7W4AsyxqK06PWZKRKFTdYc80wkhI9RkKVvGFklswHj/UGZNNkcUz9PK1MevvjjOyeUixSbVs6APPZlR3sRyUy8kv383GeAAIQ/hm587tS8C4VnpWsw/XmK1uamMG8XrJ2YRp96a8H4GJjBtOgGaZw230nLJhfwnNK7dOp0P/PAcgWm7rV7ocqU1UnQ87vTLh7mP5GRJep0LEJj+Nub2fXhkPHsci2bZpe4Eid++DX0gH4vHAlfwaTyJg/VsQAAQj/jnHH8meisGxBuZVGWq46SrCSSjCcTnwM+JcD8PRKdUBelrMm8f8KEoDURMVk/1cBeGcAuKBrzrEbvuGsByO8xGeHyXK62qarDuTTjdZisqvJhtBsklv6oiCGy/oRdACWTzU6AH+wjh8CEP4d80mwezmZvjG7Tpgo920tuOIz+iy6eOHiNwdgMv/xyEztZP83Acjzt019Q0HEsgVpuK/UI6NFrUGoBfjZcZKtB450AObWg5ljqprOXgrzXd40uuFUPAD9DwEBCHBXtruRg/vQInerDVc9DKVgZb+gHRM35/29AfiZv6gFWDB81AoQUlFnFt+fjZrj9xWkBUgFYK60eKppQiYTmWtDWpJ0+oYCsBtuAf5YIVMEIPw7sq2eRRVqYs3NpbOvfjT1YB6FYQ4SyzH/agAGk5y/4q8JQLYgKYqqEKriD14QXKHWj/26Vs/5wQCkW4DjwUyWSKXsyD0vy4nFjBD8MNoCRAACfC4/X9SCZfEcq7r9bCqVW8wUw8smrqAN+4nXwK8GYKgFeNsL5L5iRvrCLfDEkTjBv0G9bIhO5WFw63p9sKn/RACKuuW+vL+9v7+/vb/VgtV8ZBmb1ZlGZ+qE+wBjUxFjikzQB5it9l2Fo/ZSIoXtRVEURFbXVJmK349agLgFBrgjX2+r/pwxnpGcXjmVb4wcf4kBIxbkl0X0ZRe/MwBJyfZbyfy7dCdStT9uObH0YpNap1EsBnWfyJuEHso0jR+fB8hmtE23VRoTpXFlYwYzKXleGfaik5jDLUBW/PQwReXdC8DGZKay9AgJL5I9kZpNwZBrx/2L7K8F/qgFiAAEuKe0d6Sg6HBB7bRS2fOBKsReLDj7pDHgXw7AbnALTCZCm8Pax4Z25/TZtZg+vQytENNUbvfELGNocuRBpz2KBlaCcAA2lX0wJNTo14LC/2QSYHsV6QWk+wBZRled6HFFuS/eXr3L9ata8M8Ey4m8ocim5QyHNXs3OK2fgprQdADOu/Q0mAKmwQDcNR/Z4YXzi3Su8qoU/R9lCrN4x9bFLwbgYhNUieIla1tvkIrtHwgtWEiWa1VGE9qo1/GqjfIFydqGHpxMRqdQMeQ7oi1A6kCzrR299YnIDKNb+5LNp7wFL7yhzE7V0ocHOi415tfbaFIwltoxlBUFQ3Z3g/60Xh2XyvNc6WAlFUPILxczzZ/dKTLmi7++5ysQgPAvCe+7U2Rqk1K5V9O8H7EMp21WyV1vvxiA647prQThOckaRDvPfkZ+ftl2JDA+V2zjuhCDL2i1USv8cHUcq3KYIB6AQSZcKq/4d9mCKEfLXZGqi7eVICQA/dvbzy1PbTUT3F8XFMfeThb1kjcgNR8ktwCz9Aa/HKO6n64gpCEA4V+SHU+sYIhRLFi7VXUbVMvkGd0c3AmJXwzA88AvSM3zuhlf//UzSLGAwP/EymHlsuFn/Hg5LBKAVLMxez6YXllrbzVN6Hc2Fn6hg0sxhGlsosw9jcFQ82epM4zkTupp+k9uJLcAo2uBNWcUf8t89nkeeKYG+RGA8C/JP9NjhhwjzypraikpxyiXgeEkvxiA1dHQrxTPG+oxtIDst1mu2kFBVDdpRd/nYgFI7wrX6LpBWVmWYbX3bqhb8Xn1LnkTl1n2R6q6VqmyzRyn1AaRm+tycgvwsgkTVQ3GMA9UsZer/Hhx2Oy2F7vdfkQVb0AAwr+l3g7aCzyjOYcRtWGEyJjte6nxiwHY6LqF2/sm7Mr5u/z+kvjhFiApPmVKQU+dwETGjLLVrWr4WyJ9qarrVe78StU04OIVs++2ABuDmubNY7/0YZyjTUByclAQFYC0F6hlHyyjK05Nvf4PUWSGg3u9Vr8YgOnzm1bwa70UhpNYCYBUKvvcGDd+KRj/SACG9gWe99/UoOaWyCtuP3SkjYPj163iivIu4W/I58rjUjny8+XqxR/LYHn9tkoxkC89+ZVWwwE4r7wrQUl8QXeDDZpunkcziawsvtQEayqzygflsBYIQHhk5ZGt+Jf3ZY1V8D+MYNjhOzrKLwbgZU8QLxlEztws4k2jxvnUP01bZMpdOZ2N7UryBX8kAEMtQLKaJlhOSA71KXSoaWpPkDvLWZ6r036leyZTCxvPuez1j3xe294XBKlT8Rodr16ej0rwBUIHYHr1pAbD+GIh3ogfPwU70ou8eaQmesYCEC1AeGi51ZMs+qvrWV4IBjVZpqDsQrFG+5EAZJT4vsDziat4ycFxmjOIJ8OiMxsOa659Kd++GyVsp/GZPxKAoRZgajm1Fe9mngSKFK4dkZ9u/cnSpLOzHd7ziKhOXslhzi6H2T50L3eskQBsR0vSlvozal9gOgDJwNblQ78gNaEP4Q7W9JqaKCOIVCXwpAC8d/4BHkG2MXL8f/FhZFDz/uqLHwlAVmvHJtNkuzu/EgPLMtr7tBGu3JkfHxypeK1wX2w21WM3Fh2f+iMBGGmMjclk8iAAC2Y7NPWYVAQMatczwwk15HCRq9iqkLmuhMs0pdp1NUkoABntLdhn82q9tbyNRCIBmF923WBPU4Yp6rNQ/0KaVAIPpu6wtT4V2JEAVN7D27gDPJh8aOlvCMeH+scjvh6AZC/JWi/aEZVvTRyvD4vMczNf+uGwbfVciSsWr+vXmk0zaUO1z/yRAAy3AFPPp6NK7cPLSM6Enjk0X9v09qPK8BA+jnm3LRcE/zC118qlBTif2hLVR1qrhKaj56sHS6LKedMBmErVt5YelPMRGdWdUBVmVmTPEG9+DctKL3S25qpPQQCyouQ8Rc8bwGOpbyyd3tfWJ/LmLtp9FPiRABQZ2R5VyUoHb50DmYEztYM7MZ4vqO+V1jydy6dS/2Vzz+VWb6b6RfNZVne7sc19PvdHAjDSAsyOR45BtaFFbRNqrpFpKUHZWV4fDtaNZZr8Kflsel46baimHC+Yg2sLcbkOBkEYUbQ61GhEPl2fuBL1pRUJwMbI1oIzSkaCZ71VqTGfz8vl8eLgMP5LyX5UnSr1sZAWoOFV1CFTt91RfUwWqPjnDeCxjHtucIHTBG5ItRyiPgnA80EO6pjwjK5aNfvdfttRq2/JALTXW3/dTuN90G0tU6n/adQr+5mlGN4gCc/p5u7+n3LfHwnASAswlV29ykYQOKTKVuiWs/JKL+lgNNPd9s9kPmB6PJ20h7LEez0BfEHzcj7fOqr+NBiyWHAXbOFZOu3Cdb8iAZiuD0y6W4M3FHP4dpiMRr2OTd4vaK+KSm1Cz5LJlgam7v9qljEUs2a/v9svo9hsQoCHMD+1qQLQFO6DMeDPApAMjlKVWBhOKIqSIinWJsixdHcjB4POLF8U1eFxUOkuTqND25G4YHCVF5XZpzuCJPkjARgdkE2Veq4/8+5SQOc9NKTdmjh+W47sHFKUTPswOi26lV7HVQtBPRlWlKyt9/mUqIYj+fOtXf/calVbrfp00raYIk8Vko4EYD7dnamFYMsphhcEXnPc2cy1ND5YuUJKoFnbaajrtTxxgoLS5JVNTlIUXbttlwDwaNL1g8zHh0FYVle39N1RxCcB2DhRE6qvpewKBqOrb8GQY7ZRcTXGH0BlOd7QVNk0TVMmxe6oCTmcYA7Od3sjP/BHAjDaAkwt1x01CECeMazemL6trO9MPegl5DlGV+TrcaqawQTtMb6pvVe8jtB5r6YF+xWwjKSalmu/2O7QkhWJJZUBqYZcKABTqWqvZgTbupBPnzckTVE0qcAHqcryjBSdYJituGpwi3x5ZcEwRCM2CgPwGLLlkRMsh/PxvEbKA971cQDms6uXYE3+9Tk8Jxa02ZT08t1U92S9a/AkUui42cyQ3X/oHc3FgmIvnn+8B/APBWCsBZht9OlmEyto7VCsPPdfZSrnGJ6UPySVATMZgar3wrG60/NnrKRPR2q/AoYlNaB1RVGkQqYpiHxBlzT/GyYWgOnVk2kEgySXT/9SilWkp3nynOYcooMc6x3VJ3l9Jc9l2Fl4FAbgYWQXMzU+Dsxxqv1RIZGPA/A6OyRo9lyfxTP6sEKteUjXB1bB6wEjTyAXGxGajs01NfsrhfsS/JEAjLUAU6nzxjKC1BD18EZ62cZppjHUQFNwmNRx8hmy/55/P5qtjhyGepi0xZjLPiQ8x3OcZDpD1fvoYgGYyk2PFkNtSHz9bMP7KbEcZx1W0YZ1dVRjQy8kLy0ytV7CUh2AR1DfOtTleyOK1tNHtTQ/C8B5pa2KdEX6y5XEWhP6tjq72lgaSzWOYlheYLTapPoz7T8ymeSNb15n2HFa7ScmEiYFYKwFeB13DT5BEran0F7ypZ6rGlR1vzhW5HVrSy88S6/ashH6CiH9CJcGM8sx5vvmxbwfgKnyaWNKXKjBF8Zyoi6319F1wqnn1VFhI+eNrHF+oqZLAzyS8WSmR770yRKBYeJ2mJ7PAjA7njgG1bq74AU53Jn3fB44Ep84C+eK5zKS/eEf8pHy9IXcUJM1r4L0uwIwoQWYru/lYC95luXk/Tk0KF6q2CoTLFCLYflMwdmuqO6BVKpcaSvUjiDUkzlWsrujtsnfxjMSAjCVXj85XOZuAJIOCXl3SujYe57UlGBg5uqjqhgA39x8utEi/+IvFVrizQPKZwGYyp47Q4URQ40QLhNdXJU9711ZF4vRjc8IlhNERjPt0QdjMR9btnqzmnsxe4nMQP6qWAAmtADzy0pNoabXZaTZKNxnVhq1LyOwCa1A0j0nGmptHykWmB/3ZypTjLbieI5j1NqksTia3hKTpABMPa/3Q1Xiw91+3q8QxIJiHaMVFq7OA1cphF/GMers9FOfHsBfL1c9BNP/b5cIL31SpPTTAEylq5OaxlO7N5IWoPIS2WQu1zi9mkwmOQCLpJt+9cFQzCfy2WW5USYa5fLzz8VoLAATWoCpVL1DdSOwnG62z6HAyKfPh5oe2+D38mxeFBm1XaFHjq9KoxctEw0wXmQ0t1/KLz5uAZI2+Olo6kkByHJFVqlN6slfcNnSZKYKofPGMdpwFD2/AI8h/zwa6sVbfSSvSpKUVLiE0ujPCl5NpUyzqXdC93xXrd7rUNa5TMbfiK0pubGh5cZpbzuyxhczZOWvSDZ+JAvDMkUyC7fd+6n5L79Ro28b1IEa24QWIDmIdylzu90m/+WtXqT+Q241ea1ZiiGSj+NymOLlMDOsJJMtnxJGWfPV/nEoSyL5/MgrLuvlCqrzThb3Lt7VoKaVNhslfEzl7pPtqNcTcPlkrx+sYKiWu5ncr0HbGm2GskSft4xh9X5iJQ7At7B4kdkivWmukFHbp4RLKtDo23rTe3qxSe8V5MunW6NX0hfv/14yozl235Wft/pHR2Ku46IX5LkFtbbvjn+mCtZv1ai86E3vCISm1klsAWbHA9MINiUWMuomuotdPtdY7F1Vv2xX7B+nyGtWe1R/Tj7O9LjStnT/BWSfY3U2OJPGbLctC7dzJmSUhBZgKpXPz1eTF1Mizwk+WLEgu4NpI/kNr9LVytGSgtMmcJrTw1oQeFTjymF33FCOx8Pp45HXZb2/bfvPb3e6iXuHZKunwbb9Zs+u3XDt49NolZQf426vc3yfubWhZZKtH92Z/bo5jH7h7ve3Wdb7ndCBJgdBbjXo+M/aHNudfrSCFeltXfUPu1d75g4dy7SsYW1mvxw7ve4HnZylbm/7as9qjmVZQ3f2ctz3r1811cphcztnx+NTP15m6yLdqgy27ZeZWyPvePlg33eHfv3D1v31bTvtd/vWffp67PTWWA4M8BOy8/F5caqcuutqORcueUXLP49Xp36vs9l0BqPKtN6I58dDyDXqi8pov91t973+YlX9fIZ3lrxi0Nl2epVpKzS95muy89a6Ozp0dp3D5DQ9J35TJcgvS3Vy3k7rauPTLUkB4K50uVRqND69dp8b49ZqOl3Xqw9dfSRXLlXP6+n63BqXk5rDcbnyuL5er1qlnxzIyT83ru9YLZXjPRX35cqXCj6fnTcAAAAAAAAAAAAAAAAAAAAAAAAAAAAAAAAAAAAAAAAAAAAAAAAAAAAAAAAAAAAAAAAAAAAAAAAAAAAAAAAAAAAAAAAAAAAAAAAAAAAAAAAAAAAAAAAAAAAAAAAAAAAAAAAAAAAAAAAAAAAAAAAAAAAAAAAAAAAAAAAAAAAAAAAAAAAAAAAAAAAAAAAAAAAAAAAAAAAAAAAAAAAAAAAAAAAAAAAAAAAAAAAAAAAAAAAAAAAAAAAAAAAAAAAAAAAAAAAAAAAAAAAAAAAAAAAAAAAAAAAAAAAAAAAAAAAAAAAAAAAAAAAAAAAAAAAAAAAAAAAAAAAAAAAAAAAAAAAAAAAAAAAAAAAAAAAAAAAAAAAAAAAAAAAAAAAAAAAAAAAAAAAAAAAAAAAAAAAAAAAAAAAAAAAAAAAAAAAAAAAAAAAAAAAAAAAAAAAAAAAAAAAAAAAAAAAAAAAAAAAAAAAAAAD4/5DPPoR89LgAAD6Tz+bSDyCHBASAH/Qg8UcgAgHghzxQ/qXTaSQgAHzZY8UfGoEA8HUPl39oBALAV+Wz0fj4/nLZ6FECAMQ9YgMQTUAA+JL8I+ZfOo0mIAB8LpteRsPj+1uiCfhP+V9wyJSgmDWC6AAAAABJRU5ErkJggg==;clipPath=inset(19.23% 22% 17.46% 27%);" vertex="1" parent="UEzPUAAOIrF-is8g5C7q-74">
          <mxGeometry x="92.5" y="140" width="137.5" height="96.16" as="geometry" />
        </mxCell>
        <mxCell id="MY-9ZuuyUCaM7rutcldb-17" value="" style="shape=image;html=1;verticalAlign=top;verticalLabelPosition=bottom;labelBackgroundColor=#ffffff;imageAspect=0;aspect=fixed;image=https://cdn1.iconfinder.com/data/icons/ionicons-fill-vol-1/512/logo-amplify-128.png" vertex="1" parent="UEzPUAAOIrF-is8g5C7q-74">
          <mxGeometry x="24.5" y="70" width="68" height="68" as="geometry" />
        </mxCell>
        <mxCell id="UEzPUAAOIrF-is8g5C7q-75" value="バックエンド" style="points=[[0,0],[0.25,0],[0.5,0],[0.75,0],[1,0],[1,0.25],[1,0.5],[1,0.75],[1,1],[0.75,1],[0.5,1],[0.25,1],[0,1],[0,0.75],[0,0.5],[0,0.25]];outlineConnect=0;gradientColor=none;html=1;whiteSpace=wrap;fontSize=12;fontStyle=0;shape=mxgraph.aws4.group;grIcon=mxgraph.aws4.group_aws_cloud_alt;strokeColor=#232F3E;fillColor=none;verticalAlign=top;align=left;spacingLeft=30;fontColor=#232F3E;dashed=0;labelBackgroundColor=#ffffff;container=1;pointerEvents=0;collapsible=0;recursiveResize=0;" parent="1" vertex="1">
          <mxGeometry x="585" y="150" width="270" height="440" as="geometry" />
        </mxCell>
        <mxCell id="MY-9ZuuyUCaM7rutcldb-13" value="" style="rounded=1;whiteSpace=wrap;html=1;dashed=1;dashPattern=8 8;" vertex="1" parent="UEzPUAAOIrF-is8g5C7q-75">
          <mxGeometry x="15" y="49" width="240" height="120" as="geometry" />
        </mxCell>
        <mxCell id="MY-9ZuuyUCaM7rutcldb-19" value="" style="edgeStyle=orthogonalEdgeStyle;rounded=0;orthogonalLoop=1;jettySize=auto;html=1;" edge="1" parent="UEzPUAAOIrF-is8g5C7q-75" source="MY-9ZuuyUCaM7rutcldb-1" target="MY-9ZuuyUCaM7rutcldb-18">
          <mxGeometry relative="1" as="geometry" />
        </mxCell>
        <mxCell id="MY-9ZuuyUCaM7rutcldb-22" style="edgeStyle=orthogonalEdgeStyle;rounded=0;orthogonalLoop=1;jettySize=auto;html=1;exitX=0.75;exitY=1;exitDx=0;exitDy=0;" edge="1" parent="UEzPUAAOIrF-is8g5C7q-75" source="MY-9ZuuyUCaM7rutcldb-1" target="MY-9ZuuyUCaM7rutcldb-6">
          <mxGeometry relative="1" as="geometry" />
        </mxCell>
        <mxCell id="MY-9ZuuyUCaM7rutcldb-1" value="" style="shape=image;verticalLabelPosition=bottom;labelBackgroundColor=default;verticalAlign=top;aspect=fixed;imageAspect=0;image=data:image/png,iVBORw0KGgoAAAANSUhEUgAAASsAAACpCAMAAABEdevhAAABPlBMVEX///9q1+UAAAD20qJe1eRs2+ll1uWj5O5t3etr2Obq9vTp+Prz+/vl9/r816b/2qj18vK4s7Jv4vFg1OCJ2+HKxcQjcHlj0d+MhIJRtcJjytfBvLsASlHQ8PGS3uRq1uHA6+6vqql22OFKp7Oak5JtY2GinJvZ1tUziJJYwM0cVl1MrLg+mqViZWYgQUVVVVXn5+c7OzshISEAOj+w5+uAd3YufYe46ez/4q7oxplOSEd3bmzV0dFMV1gkUlgYYmo6TVAjOTw7OjkgKitLbnNDXGA2dHxJlJ1VT00aNTgAVl4OHB1ES0wdOj6AgIBBg4syZWswNzggAAAwUFSph2NXSjnDpoCBZEk6NDCdhmhBNypRTUVmVUPAo3x3VTlZW2AADBcAGSdhd3qji2t4Z1EvCwBiRSeSc1FRPipDMheWQyObAAAOvElEQVR4nO2dCVvjNhrHc9iODCGHQwAHct/BgbAEmAAl0OkAZWhmuhxz0uluu8Ps9/8CK9lO4kPyhZKwwb+nfZqnsRXpz6tXr17JciDg4+Pj4+Pj4+Pj4+Pj4+Pj4+Pj4+Pj4+Pj4+PjM48k6ulapXp0VK0erdVq6ePErCv0PDkuHv100m9IYmaV41YholhurLROq7XjWVftWXFcub5qiByAsCw/hGVZ9D/ExkY1OesaPhPqe1uNJtSE54NYeAC48sZRfdb1nD3J6/0MAASZRnKxILNy2Zl1XWdL8kyCBmUpE0K2rtWrPfmexPr6+suTrfOzJLCqIFihWMA2RVFswv8itcTXHWiHK5Io7Z8VZ135aVBfu/7lzXYFRgO1jSBAegAuk1kFZvtiQbnVrqyn1yvt1ibqpix/ciihC6HTlw7nPp5IXK5k5MGtP6hKAg/1EPtv9tYqe+2WxLM6qYRNjfEUtzLItITzC0EVMvN6hs2YBp3djOLHWfCrCGDby6fFoX2ktxuCxrSEfkV366WIpIRiAaXDss3L6dd/inR21RGP53+FdsKzLZ3bSe9yI7HAhjEEvcygL4WTzWYTyFc00lOs+tTZQVpAb8MLW00k1ZZhPEucDZ0W6Juj9TNZIuF1KPRe/sRuT6nasyApwTaC5sWmcF5Gn05MQ3+nBRRvJK6Zb1+XUC/kV0OhkPwJXM2xe9+GLWTLsKmhc+ihWQkzc6mIsmGBLdz9p0rfk1TDYhtzHMtvoBABSfUWuS1wjbtGNiy+ifx6x5hmWJM9VlD4LfRO1kpan0KlZ0NnBY58QaTVJjKwTeTXj4uGfngk9y5kMW14oV6MtNz1YAf9VXXu82tXSKsg+zYU2kIxErsPVdqBetR0FxVRJwQtGKkiUUM6JRP7ijcT5ALgUDnV6k8X1Af5zFvZrGQ9BrIeOuuQbQf8Egj8Q/5OF2MlrhStwDtUAp85mm71p0p1FYUMwlvFKnYDAVmO0EB7TWeoFfrmeKD7LtFXtOJXoVfjwe4cD4OBzhUa/sR3QKtVp9LWXlOXterDQRN+l6jpYtV6Q50FgS04m96dX2+FqO0LPHivjGZIjx1ZK50eSdnvS+lAXbY5/e3iMFJ9J0q/Tz0vs4CY3s8VN1aFLTXcvDhW9PiH7oojObTnqnCI3Akd6XvZNVAnQHzzn9PMKkezkVKKGZJaPlj0UkhgIZstFLLZBfjREYlq6x2rOp092Kvarw0B+onSQVcwVqPE7YphTW16E80uQ5k4bQKE4xgmt+SqjO7yWGtIPpd1pFdxc+h0WhjfLMftKBW6Y/oqsSWMqosG0WmQXTboNNKLyRccFhHJwzI44+1MycH9R8NcAp+pmr6s9wEPhEyTFZrGLztn4yTElMLQgxReKAUmlbUtYSlH0Brdz+TsjOt06HSgB68ZvutsATbzHjmxLbGpT3wmN7R5ZiXonywFK6GU1pasG1uw1BpZV866ClcjraB16J3V+gbPNkMqZa61NnJa69cXurUe2dlNlGyKsVEKkSqQSyg4KIFjLAoI1PfHWgXB5vU4X3e8LQFe2Bpq9VoAzZU3e5VaZe1bSwL6/PLEnfuyE6UgRMtYcqQ1sk1yJdKSttUsuLjZSx530sW9mwYPfdXIrEKhDOBZwDVFEa1bGH8CnExEIpVsyq77jeCWsSU41RoWkCLGbKNhcKTW6qYkSSKHFp4zN7d3Q6nuP5wDdUzE/ALoT3CCc+C4oaitGMNYcq41hCGNEZWMselo34K8QM/zH8Ox2KfPMDy9+xSOxe+3OOIyK9if3ECYcyMVTqyCuwKCJKe1Z9JqBHvei4WhRrFwHP4LP/VuAPHayeX5Sm5sAsEZfFbEpVREsQYWtvIlHtYRu5VMjkqFFSc1yXEtlbGpLs1SKQHbDdtEUwmCr6pWsdhQrXOSVnwTs3gxI6lgUzVxlhepYAm4Kea2hVY3cs+Lh+8fekonfCDaFZ+ZjFbLXqQKBscuK+etgGDKnVas+Ec83vvrbvBtULt8hE6rd2Yh7ESSol5bOuqFXU9WFTQ7PRutoFitPwcwOG3DeL3+ry9f3wfJ243A4QSkcjuAjckrBWQ9FxBkzGGWlVZBVvgJXbOD5jZvBMstbJMI3BcsWsrJkFt6gAqIWkplWYC2Hw+x8O1IATmfvIPizGvLC4Pg3y40sGHomVPEVjKpXLdQ6ObIk2G5pSVidWEJy5FuF+UMiXkH01g4WLXaxqesr+7YixoEb5wqtcTYoboKkrNiUgejcW6xSwjJUUu7hAI4plTQlEBSy2RYFrFocJjDk7MxdlrtOpQqSrSWIfmhpviGGtNUBVOBauaOWEDXkLohDAAmj2WtFVuuBQKJEEo+7FDSqmRrVqoWeXwDumb1tTEY0qm7JIuBjzdwGb3FPO5S01BYtNQKGlax+Bu7kaxXiaGVS62WFnEsaVCuw0+YU9i8uioW1CkfWRpKgR0DTVapL0FP3qhV2UaDchnwQNrPWF/mXCun4MyKIyU+S3BIg/5et8KAL4D0c7hhwNgJkzZaBVn0PWu34536ZoYDzB+a3NJoablgsDhcbEZIbsklYNwod6C/5timbzmFtlY4q7BIWTorwNiptGC0NTosXQ75KVrRXfXCWQU5YYkB560Yy6ULzFBg+OMk9inZlZVWBxHHRIkVt1w2MIHxPzYFYNQ1TqA3Jm9XWYZzCqPcgZvduOqBix4KMPdaoyG+n7hW43rbS6V6iALGrIzRguU0CROyY1NSWiKme4zTnFNKWvWJdcgtm8kRUF2Sve/opizjWcwoamuX5k5o1OqniWvlHkx+wOBs3CdbiKszFr9q9HADj+k0A1S1snez5AwCCVyi04ApxDJqVbVMNDgGrFBTCuuu9D3IvVnh8pxGTM6dMQSja7S0oriYas7GcBHdBe7Nyr4LYkrlCvoLRhsZn4aHheeoGaIU+t5AyLZYYTsKQsw3GQSubVIJRkHf7X7RAmb4UsUyz830EYOH1R3GvkIY327QKjkrrTCT1aFWmGFQGxVa5eFJOHDtmJjBMKs6pqSVW3+VG0ZCShAqf1QVwWih08rLSpiDqN8cv+qMsZMsDugkGsDFjy9tN3sasoiChoODg0LAkVZeFrKsUgwq5j+BRuDilw8P97cXVLRipV48fPuZyq4GnFYa14xLbdli3wfNGaxxnJH4+SEei8XuG1QCd1Z6iIVj8duBVXWeoJXGy9oubuDALI0aMP8JuFFu/2NY2aNAUatwOP5IYW8RZorDaZYkvG3msN0AjwlUhn+g2r28C8ZiP4crePFW3k0Tp7H+jLEcjevArATZ148zr//owWQXRz6u3furh9p2S2cc5MVHpP3nTzQ6ISb/q3XuC0sGFh3E8XYOy/ybY3fVCf0FHUzsMSTS0aoZ+gTd36uPFKTCxZqWduFkj4jNJAcTh2juGPTi8YePdePmWq9wlfTH2x4V345fXCdfvujI21tGDbjVSM0NicO/D5PU5oNB9hKdMUZnJyQmz2CRKIg6m0lbWSYub4G5nlKeIci2MXXwCHZuTOxETmeH5F6ITfFgVn0o5a/U7UeUwO5lwK/PY6Uq4QsgxFjY7QA4Ox7QcVeE4y48gt8NhNuLsIjbicBknRcQiOKfqcAlJmz2oDkG/EZRK0LeM2VyIeYNRYg8KcOF2WVTwG/gMqZEZSit4wTBe4paETYUBTndE5XRQh5vEktWBejcEKEEwqhJaX2QslakLXlBJhUpZBei0YVsIUd4dEsewIghFypA8VsLhQgx4senUSmtO1M+pchi9x83SnwRLpBNIkquKSwgxZfyxsemtWD6KmKFlm+ne6IT0bBsUUc77/u9iXuPaO2Tof5UnNd6jFYx3K/1jCCE+HU6KRn6Wnm0i3FY5GGxRyVPiMPSdvv6nEJ1gRDh6VEcbe/x/HwJKdVlt1/UMdS18pL/1O+S9PSMmEVW8Blr5X5py7ChNEoIsiwhzKRkrZp0poOTeOLZ7a4F097bBdemyZF8layV9f5250zi6XB3YjHmkd6tWOSdzog1alpN4sRMN2Jh48co9okIYhERTBFjrJ8xcQE4py8VNAynbeXyhOyU8+GUWMQQelrd0FdKbqsj08L0vyEOQwfbw2RoanVKUyENhKSJFsbSIpYc2CbHLNtvOjKfZeERmjlkPdGc9fFCDF+wKeGAt1YLKuXkrDFq4yA7wRMzF5aJajk8JKxrcfQOk8o5eyKD1pKXcgzwxIh282a5OI7hI04fPMliH9flmGDJwe5IBVpxO1ue9GHIC91SfrhdC+WwUqXlA3fHQGZzSC8l7yWXkSpFHAsVoPic1wQP3xmzkC10I7lcpHuQ9Xha5lIhkivl88uRbsF1Ec/0Oa/nyRUlrbAnms8Z5HOa3DCp82SeF21KWyDn+sUcKhUqSRlwNet2TINjKntr5/odJmNaFBwWW34R7/MKVCk8FIc9S3kOST49GuVX5/n1CVo052V7NauV+X4nwJi1p46EPD+JQ9WeJYmNJxrWyzEraFhP27aNO/h9frE439EBwly/7MXIcf8JvVBYeQnTmzEVybNlAWmiCdFnyJ5XsUD5pYRWY/YkT91QkP5jfEnF/NP+vi+4DrN4YeXx1e3EFrueJ/WPvVcPu6su+yHI7D7Ew/GHFyVW8nscHWX/o2F+kQQZFjR+9JRHW1+Qd09+UA5qjz+clQXr19GPeh8A0tvvr5Tj3ePfX8z76Ds/4uph9rFXj39e8LbGhd5n0vg9GUj+IWt8H+u9mF446MU/3ctS9e4G6fR2v8yaX0Y/0glaFFduVeX4M40MMnbXi9/Nug3T4jre+xyXu+A3ebKSKG63Gk0WvaZe834XHr3fBOokNk6qoycqi7fwxt7XV59nV/vpMgjfyU+Jf9C46ONK+6bfKDebHFDJNEVp/+r0qKbLKQygWPGvL8e5d/77dzwcC/8wbkhI1JO1tcH24eEl/OdobS2ZxqReBo/x2B9UHnL+/yBx2Is9/OxxLFv/9u1lzZ0H7Wm+w9PHx8fHx8fHx8fHx8fHx8fHx8fHx8fHx8fHx2f++B9uFWgmbfB61wAAAABJRU5ErkJggg==;" vertex="1" parent="UEzPUAAOIrF-is8g5C7q-75">
          <mxGeometry x="30" y="93" width="122.08" height="69" as="geometry" />
        </mxCell>
        <mxCell id="MY-9ZuuyUCaM7rutcldb-6" value="Amazon Neptune" style="sketch=0;outlineConnect=0;fontColor=#232F3E;gradientColor=none;strokeColor=#ffffff;fillColor=#232F3E;dashed=0;verticalLabelPosition=middle;verticalAlign=bottom;align=center;html=1;whiteSpace=wrap;fontSize=10;fontStyle=1;spacing=3;shape=mxgraph.aws4.productIcon;prIcon=mxgraph.aws4.neptune;" vertex="1" parent="UEzPUAAOIrF-is8g5C7q-75">
          <mxGeometry x="165" y="250" width="80" height="110" as="geometry" />
        </mxCell>
        <mxCell id="MY-9ZuuyUCaM7rutcldb-16" value="Amazon EC2" style="sketch=0;outlineConnect=0;fontColor=#232F3E;gradientColor=none;strokeColor=#ffffff;fillColor=#232F3E;dashed=0;verticalLabelPosition=middle;verticalAlign=bottom;align=center;html=1;whiteSpace=wrap;fontSize=10;fontStyle=1;spacing=3;shape=mxgraph.aws4.productIcon;prIcon=mxgraph.aws4.ec2;" vertex="1" parent="UEzPUAAOIrF-is8g5C7q-75">
          <mxGeometry x="165" y="20" width="80" height="100" as="geometry" />
        </mxCell>
        <mxCell id="MY-9ZuuyUCaM7rutcldb-18" value="Amazon DynamoDB" style="sketch=0;outlineConnect=0;fontColor=#232F3E;gradientColor=none;strokeColor=#ffffff;fillColor=#232F3E;dashed=0;verticalLabelPosition=middle;verticalAlign=bottom;align=center;html=1;whiteSpace=wrap;fontSize=10;fontStyle=1;spacing=3;shape=mxgraph.aws4.productIcon;prIcon=mxgraph.aws4.dynamodb;" vertex="1" parent="UEzPUAAOIrF-is8g5C7q-75">
          <mxGeometry x="35" y="250" width="80" height="110" as="geometry" />
        </mxCell>
        <mxCell id="MY-9ZuuyUCaM7rutcldb-12" value="" style="edgeStyle=orthogonalEdgeStyle;rounded=0;orthogonalLoop=1;jettySize=auto;html=1;" edge="1" parent="1" source="MY-9ZuuyUCaM7rutcldb-11" target="MY-9ZuuyUCaM7rutcldb-9">
          <mxGeometry relative="1" as="geometry" />
        </mxCell>
        <mxCell id="MY-9ZuuyUCaM7rutcldb-11" value="" style="sketch=0;outlineConnect=0;fontColor=#232F3E;gradientColor=none;fillColor=#232F3D;strokeColor=none;dashed=0;verticalLabelPosition=bottom;verticalAlign=top;align=center;html=1;fontSize=12;fontStyle=0;aspect=fixed;pointerEvents=1;shape=mxgraph.aws4.user;" vertex="1" parent="1">
          <mxGeometry x="80" y="350" width="70" height="70" as="geometry" />
        </mxCell>
        <mxCell id="MY-9ZuuyUCaM7rutcldb-15" value="" style="edgeStyle=orthogonalEdgeStyle;rounded=0;orthogonalLoop=1;jettySize=auto;html=1;" edge="1" parent="1" source="MY-9ZuuyUCaM7rutcldb-9" target="MY-9ZuuyUCaM7rutcldb-1">
          <mxGeometry relative="1" as="geometry" />
        </mxCell>
      </root>
    </mxGraphModel>
  </diagram>
</mxfile>
